<svg width="95" height="25" viewBox="0 0 95 25" fill="none" xmlns="http://www.w3.org/2000/svg">
<g id="Group 1597879915">
<path id="Vector" d="M68.4401 12.0692C68.4246 10.7157 68.4401 9.34661 68.4401 8.02422C68.4557 5.76838 68.4557 3.43475 68.3934 1.11668V0.914429H65.9198V9.96891C63.4461 7.60417 60.1635 7.13744 57.4254 8.83321C54.9362 10.3734 53.116 13.7338 54.625 17.7944C55.5118 20.0658 57.4254 21.6059 59.8679 22.026C60.3191 22.1038 60.7703 22.1505 61.2214 22.1505C63.3839 22.1505 65.4375 21.2637 66.8221 19.6924C68.5023 17.9033 68.4712 15.1496 68.4401 12.7226C68.4401 12.5048 68.4401 12.287 68.4401 12.0692ZM65.8265 15.0873C65.7331 18.2455 63.3528 19.6613 61.1903 19.6613H61.1747C59.7123 19.5835 58.5144 19.039 57.6899 18.0588C56.9742 17.2032 56.5853 16.0519 56.6164 14.8384C56.7097 11.6647 59.1056 10.2334 61.3148 10.2334H61.3303C63.555 10.3734 65.9198 11.9447 65.8265 15.0873Z" fill="#012D67"/>
<path id="Vector_2" d="M84.4956 14.8851C84.4645 12.9871 83.8422 11.3224 82.7065 10.0778C81.6952 8.97324 80.2795 8.21092 78.7237 7.93088C75.8456 7.41748 72.0962 8.55318 70.6649 12.2403C69.1558 16.4097 71.1005 19.7702 73.7142 21.2326C74.741 21.8082 75.9078 22.1194 77.0435 22.1194C77.4013 22.1194 77.7747 22.0882 78.1325 22.026C79.6261 21.7771 80.9796 20.9992 82.0997 19.7702V21.7926H84.4489L84.4645 21.606C84.5578 20.0035 84.5267 18.3233 84.5111 16.7053C84.4956 16.1141 84.4956 15.4918 84.4956 14.8851ZM81.913 14.9318C81.9286 18.1366 79.5483 19.6457 77.3391 19.6768C74.1809 19.6146 72.7341 17.2187 72.7185 15.0096C72.703 11.8358 75.0366 10.3112 77.2302 10.249C79.4705 10.2645 81.8975 11.7425 81.913 14.9318Z" fill="#012D67"/>
<path id="Vector_3" d="M94.7479 8.11758H94.1101C93.6589 8.10202 93.2233 8.10202 92.7877 8.13314C86.2224 8.70877 86.4247 14.1539 86.6113 18.9767C86.6425 19.9102 86.6736 20.7814 86.6736 21.6215V21.8238H89.1005L89.1161 21.6371C89.1628 20.5636 89.1317 19.4746 89.1005 18.4167C89.0228 15.6941 88.945 13.1271 90.3607 11.7269C91.2475 10.8557 92.6943 10.4668 94.7635 10.5601L94.9657 10.5757V8.11758H94.7479Z" fill="#012D67"/>
<path id="Vector_4" d="M52.7738 11.4469C52.7427 11.3846 52.6182 11.1201 52.3693 10.7156L52.2293 10.5134L52.2137 10.529C49.9579 7.43301 46.5508 7.38634 44.2794 8.33535C41.5879 9.45549 39.2232 12.3336 39.9544 16.2852C39.8299 16.363 39.6432 16.4719 39.3165 16.6742C38.0252 17.4832 35.3338 19.1478 34.0425 19.6301C32.3623 20.1746 30.6354 19.8168 29.4064 18.6967C28.0684 17.4676 27.5706 15.5229 28.0529 13.5004C28.504 11.6958 29.8575 10.4356 31.6933 10.1245C33.5602 9.79775 35.4116 10.5756 36.4384 12.1003L36.5784 12.3025L38.1341 10.7312L38.0252 10.5912C36.5784 8.61538 34.2292 7.60414 31.6933 7.86862C29.1419 8.14866 26.9638 9.70441 25.9993 11.9136C24.7235 15.0095 25.3614 18.2144 27.6639 20.2991C28.9863 21.497 30.6354 22.1038 32.3467 22.1038C33.4824 22.1038 34.6492 21.8393 35.7383 21.2792L35.7538 21.2948L40.6856 18.4944C41.8057 20.5947 43.9371 21.9326 46.473 22.0726C49.0088 22.2127 51.2958 21.0925 52.5715 19.0856L52.6649 18.9456L51.1247 17.4365L50.9847 17.6388C50.0512 19.0545 48.6355 19.8324 46.9864 19.8324C45.1506 19.8324 43.6104 18.8834 42.8481 17.2654L52.8827 11.5869L52.7738 11.4469ZM49.6 10.8246L42.3347 14.9317C42.3191 12.9559 43.237 11.3691 44.8394 10.5445C45.5084 10.2023 46.2396 10.0311 46.9708 10.0311C47.8887 10.0311 48.8066 10.2956 49.6 10.8246Z" fill="#012D67"/>
<path id="Vector_5" d="M8.79257 6.88857C8.31028 6.39073 7.76577 5.93956 7.19014 5.5195C7.73465 4.25934 8.57476 3.12364 9.6949 2.20575C10.815 3.12364 11.6707 4.25934 12.2152 5.5195C11.624 5.924 11.0951 6.37517 10.6128 6.88857C10.4728 6.77966 10.3483 6.67076 10.2083 6.56186L9.71046 6.20404L9.21262 6.56186C9.05704 6.6552 8.93258 6.77966 8.79257 6.88857ZM4.77872 5.86177C3.93862 7.02858 3.44077 8.35098 3.26964 9.70448C4.12531 10.0312 4.91874 10.4668 5.64994 10.9646C6.11667 9.8445 6.8012 8.8177 7.65687 7.91536C6.86343 7.07526 5.88331 6.37517 4.77872 5.86177ZM8.66811 14.2006C8.88591 14.0761 9.10372 13.9672 9.32152 13.8583L9.6949 13.6872L10.0683 13.8583C10.2861 13.9672 10.5039 14.0761 10.7217 14.2006C11.204 13.4072 11.7641 12.676 12.4486 12.0381C11.9352 10.5446 11.0017 9.17552 9.6949 8.11761C8.40363 9.17552 7.45462 10.529 6.95678 12.0226C7.62575 12.6604 8.20138 13.3916 8.66811 14.2006ZM16.1202 9.70448C15.949 8.35098 15.4512 7.02858 14.6111 5.86177C13.4909 6.37517 12.5264 7.07526 11.7329 7.91536C12.5886 8.8177 13.2731 9.86006 13.7399 10.9646C14.4711 10.4668 15.2645 10.0467 16.1202 9.70448ZM12.0285 15.0563C12.7597 15.6008 13.3976 16.2386 13.9577 16.9543C15.2178 16.192 16.6024 15.6941 18.0649 15.4452C18.1271 13.905 17.7381 12.3804 16.9292 10.9958C14.7978 11.7736 13.0709 13.2049 12.0285 15.0563ZM7.37683 15.0563C6.31892 13.2049 4.59203 11.7736 2.47621 10.9958C1.65166 12.3804 1.27828 13.905 1.32495 15.4297C2.78736 15.6786 4.18754 16.1764 5.43214 16.9387C5.99221 16.2386 6.64563 15.6008 7.37683 15.0563ZM10.4883 24.7953C15.1245 24.4375 18.8427 21.0304 19.2472 16.7676C17.427 16.9076 15.7001 17.5299 14.2377 18.5723L13.5376 19.0701L13.0709 18.37C12.2308 17.1099 11.064 16.0675 9.6949 15.3363C8.32584 16.0675 7.15903 17.1099 6.31892 18.37L5.85219 19.0701L5.1521 18.5723C3.67414 17.5299 1.96281 16.9076 0.142578 16.7676C0.547074 21.0459 4.26532 24.4375 8.90147 24.7953H10.4883Z" fill="#FA6B54"/>
</g>
</svg>
