<svg width="103" height="26" viewBox="0 0 103 26" fill="none" xmlns="http://www.w3.org/2000/svg">
<g id="Group 39470">
<path id="Vector" d="M12.4195 16.5066C13.6452 16.5066 14.6388 15.513 14.6388 14.2873C14.6388 13.0616 13.6452 12.0679 12.4195 12.0679C11.1938 12.0679 10.2002 13.0616 10.2002 14.2873C10.2002 15.513 11.1938 16.5066 12.4195 16.5066Z" fill="#00B4F5"/>
<path id="Vector_2" d="M2.2337 5.35308C3.4594 5.35308 4.45303 4.35946 4.45303 3.13376C4.45303 1.90806 3.4594 0.914429 2.2337 0.914429C1.008 0.914429 0.0143738 1.90806 0.0143738 3.13376C0.0143738 4.35946 1.008 5.35308 2.2337 5.35308Z" fill="#FF6455"/>
<path id="Vector_3" d="M12.4195 5.35308C13.6452 5.35308 14.6388 4.35946 14.6388 3.13376C14.6388 1.90806 13.6452 0.914429 12.4195 0.914429C11.1938 0.914429 10.2002 1.90806 10.2002 3.13376C10.2002 4.35946 11.1938 5.35308 12.4195 5.35308Z" fill="#0000FF"/>
<path id="Vector_4" d="M2.23355 16.5066C3.45925 16.5066 4.45287 15.513 4.45287 14.2873C4.45287 13.0616 3.45925 12.0679 2.23355 12.0679C1.00785 12.0679 0.0142212 13.0616 0.0142212 14.2873C0.0142212 15.513 1.00785 16.5066 2.23355 16.5066Z" fill="#0000FF"/>
<path id="Vector_5" d="M2.23352 10.9298C2.5465 10.9583 4.25368 10.631 5.60519 10.3607C6.74331 10.1331 7.90988 10.1331 9.03377 10.3607C10.3853 10.631 12.1067 10.944 12.4054 10.9298C13.6289 10.9298 14.6248 9.93395 14.6248 8.71048C14.6248 7.487 13.6289 6.49115 12.4054 6.49115C11.936 6.49115 10.3284 6.78991 9.03377 7.04598C7.89565 7.2736 6.71486 7.2736 5.57674 7.04598C4.29636 6.78991 2.67454 6.49115 2.2193 6.49115C0.995821 6.49115 -3.05176e-05 7.487 -3.05176e-05 8.71048C-3.05176e-05 9.93395 1.01005 10.9298 2.23352 10.9298Z" fill="#0000FF"/>
<path id="Vector_6" d="M23.7153 16.0229H20.0876V1.41235H23.7153V16.0229Z" fill="#0000FF"/>
<path id="Vector_7" d="M27.9121 7.47276C28.4669 5.3957 30.1457 4.88354 31.6537 4.88354C34.4278 4.88354 35.7651 6.71876 35.7651 8.68201V16.0229H32.18V9.87703C32.18 8.82427 31.6679 8.1414 30.544 8.1414C29.2636 8.1414 28.5238 8.95231 28.5238 10.1189V16.0086H24.9388V5.19653H27.9121V7.47276Z" fill="#0000FF"/>
<path id="Vector_8" d="M42.8214 13.1918C43.8884 13.1918 44.5713 12.6227 44.7989 11.7407H48.3271C48.0568 14.1734 46.3923 16.3501 42.7645 16.3501C39.1368 16.3501 36.7467 14.0738 36.7467 10.6168C36.7467 7.15978 39.2648 4.88354 42.7503 4.88354C46.2358 4.88354 48.0568 7.06019 48.3128 9.49292H44.7989C44.5713 8.61088 43.8742 8.04182 42.8214 8.04182C41.3561 8.04182 40.4314 9.08035 40.4314 10.6168C40.4314 12.1533 41.3561 13.1918 42.8214 13.1918Z" fill="#0000FF"/>
<path id="Vector_9" d="M49.3088 1.41235H52.8938V16.0229H49.3088V1.41235Z" fill="#0000FF"/>
<path id="Vector_10" d="M61.9705 16.0229V13.7609C61.4156 15.8237 59.7511 16.3501 58.2431 16.3501C55.469 16.3501 54.1175 14.5149 54.1175 12.5516V5.21075H57.7025V11.3424C57.7025 12.3951 58.2147 13.078 59.3386 13.078C60.619 13.078 61.3587 12.2671 61.3587 11.1005V5.21075H64.9438V16.0229H61.9705Z" fill="#0000FF"/>
<path id="Vector_11" d="M71.0041 4.88361C72.3983 4.88361 73.6502 5.43844 74.1197 6.57655V1.41235H77.7047V16.0229H74.7314V13.7609C74.1766 15.5534 72.4552 16.3501 71.0041 16.3501C68.2441 16.3501 65.9252 14.145 65.9252 10.6169C65.9252 7.08871 68.2584 4.88361 71.0041 4.88361ZM71.8008 8.15569C70.7338 8.15569 69.6241 8.82433 69.6241 10.6169C69.6241 12.4094 70.748 13.078 71.8008 13.078C73.2519 13.078 74.1197 12.0822 74.1197 10.6169C74.1197 9.15154 73.2519 8.15569 71.8008 8.15569Z" fill="#0000FF"/>
<path id="Vector_12" d="M78.6863 10.6168C78.6863 7.10287 80.9626 4.88354 84.3342 4.88354C87.2649 4.88354 89.6976 6.77566 89.6976 10.6168C89.6976 11.2428 89.6123 11.6696 89.5554 11.7834H82.2287C82.2856 12.8646 83.0396 13.5759 84.2631 13.5759C85.6858 13.5759 86.0983 12.9642 86.1979 12.5943H89.6692C89.5696 14.145 88.2038 16.3501 84.3912 16.3501C80.9768 16.3501 78.6863 14.1307 78.6863 10.6168ZM86.0556 9.29375C85.9703 8.25521 85.3016 7.6577 84.2631 7.6577C83.2246 7.6577 82.371 8.22676 82.2856 9.29375H86.0556Z" fill="#0000FF"/>
<path id="Vector_13" d="M95.758 4.88361C97.1522 4.88361 98.4041 5.43844 98.8736 6.57655V1.41235H102.459V16.0229H99.4853V13.7609C98.9305 15.5534 97.2091 16.3501 95.758 16.3501C93.0123 16.3501 90.6792 14.145 90.6792 10.6169C90.6792 7.08871 93.0123 4.88361 95.758 4.88361ZM96.5547 8.15569C95.4877 8.15569 94.378 8.82433 94.378 10.6169C94.378 12.4094 95.5019 13.078 96.5547 13.078C98.0058 13.078 98.8736 12.0822 98.8736 10.6169C98.8736 9.15154 98.0058 8.15569 96.5547 8.15569Z" fill="#0000FF"/>
<path id="Vector_14" d="M26.333 18.7402V25.6685H24.6543V22.8801H21.7521V25.6685H20.0733V18.7402H21.7521V21.5286H24.6543V18.7402H26.333Z" fill="#0000FF"/>
<path id="Vector_15" d="M30.8145 20.106V21.5428H33.4606V22.8375H30.8145V24.3028H34.2431V25.6685H29.15V18.7402H34.2288V20.106H30.8145Z" fill="#0000FF"/>
<path id="Vector_16" d="M43.5043 25.5405L43.4332 25.6685H41.7402L41.2423 24.4593H38.2974L37.7853 25.6685H36.1492L36.0781 25.5405L39.2933 18.7402H40.3176L43.5043 25.5405ZM40.7586 23.3069L39.777 20.9453L38.7669 23.3069H40.7586Z" fill="#0000FF"/>
<path id="Vector_17" d="M50.0769 25.6685H45.4817V18.7402H47.1604V24.3028H50.0911V25.6685H50.0769Z" fill="#0000FF"/>
<path id="Vector_18" d="M54.4872 25.6685H52.8085V20.106H50.6176V18.7402H56.6781V20.106H54.4872V25.6685Z" fill="#0000FF"/>
<path id="Vector_19" d="M64.9436 18.7402V25.6685H63.2648V22.8801H60.3626V25.6685H58.6839V18.7402H60.3626V21.5286H63.2648V18.7402H64.9436Z" fill="#0000FF"/>
</g>
</svg>
