<svg width="101" height="24" viewBox="0 0 101 24" fill="none" xmlns="http://www.w3.org/2000/svg">
<g id="Group 1597879913">
<path id="Vector" fill-rule="evenodd" clip-rule="evenodd" d="M93.0724 16.9921L93.0009 16.405C92.9856 16.308 92.6538 14.0058 94.221 12.3825C94.6753 11.9077 95.2266 11.6372 95.7269 11.6372C96.1557 11.6372 96.5079 11.826 96.6866 12.1783C97.5493 13.9037 93.0724 16.987 93.0724 16.987V16.9921ZM86.2626 13.3626L86.2013 12.3876L86.1911 12.265C86.1911 12.2344 85.9716 9.15623 86.1656 6.96628C86.38 4.58235 87.0742 3.04581 87.937 3.04581C88.1156 3.04581 88.2841 3.13769 88.4168 3.30104C88.8456 3.83705 88.9732 5.2766 88.7027 6.56811C88.2688 8.63555 87.5796 10.2742 87.0743 11.4738C86.9313 11.8107 86.8037 12.1119 86.7067 12.3722L86.2575 13.3575L86.2626 13.3626ZM81.5407 19.8457C80.438 19.8457 79.9173 18.7839 79.9173 17.7884C79.9173 12.6479 82.7505 11.6372 83.9859 12.0302C83.9859 12.0302 84.0267 13.0052 84.1288 14.261C84.2156 15.3534 84.2921 16.645 84.3126 16.7522C84.3126 16.7522 83.2865 19.8406 81.5458 19.8406L81.5407 19.8457ZM72.546 12.2344C72.546 12.2344 72.2295 19.8457 69.3658 19.8457C67.9926 19.8457 67.8854 18.3091 67.8854 17.8395C67.8854 12.408 71.9947 11.4432 72.546 12.2293V12.2344ZM46.0318 20.0294C44.388 20.0294 43.801 18.3959 43.801 16.8645C43.801 14.0772 45.4192 11.9128 46.8128 11.9128C48.2064 11.9128 48.6658 13.7812 48.6658 15.0421C48.6658 17.8395 47.5071 20.0345 46.0318 20.0345V20.0294ZM19.8697 13.5566C18.9254 15.0267 16.7813 16.4816 16.1586 16.7113C16.1586 16.7113 15.7093 13.8322 18.0524 12.1527C19.7676 10.9225 20.5487 12.4948 19.8697 13.5566ZM91.5511 20.3051C92.2199 21.3618 93.4144 21.8774 95.099 21.8774C96.952 21.8774 98.8714 20.4786 99.9689 19.1769C100.622 18.4061 100.694 17.962 100.418 17.717C100.168 17.4975 99.6167 17.7833 99.1113 18.2428C98.4324 18.8604 96.9877 19.7487 95.7269 19.7487C94.1954 19.7487 93.5012 18.7481 93.5012 18.7481C96.6151 16.8389 98.9122 14.6745 98.9122 12.8164C98.9122 10.7336 97.3757 9.80454 95.8494 9.80454C93.1234 9.80454 90.178 12.3059 90.178 16.3489C90.178 17.6863 90.6272 18.8196 90.6272 18.8196C90.6272 18.8196 90.0861 19.6619 88.3658 19.5241C86.5383 19.3709 86.6506 16.0528 86.6506 16.0528C86.6506 16.0528 87.2121 15.0063 87.4214 14.6184C88.6567 12.3365 90.3515 9.21239 90.6272 5.46547C90.7803 3.36741 90.1882 2.23925 89.6624 1.66241C89.1978 1.14682 88.5751 0.845642 87.9982 0.845642C85.8848 0.845642 84.4147 3.02539 84.0573 5.1745C83.7102 7.28278 83.848 10.4222 83.848 10.4222C83.848 10.4222 81.949 9.95258 80.0399 11.2492C78.294 12.4386 77.5232 14.8174 77.2782 16.0171C77.1659 16.5531 77.1301 17.1197 77.1659 17.6914C77.1812 17.9569 77.2629 18.4725 77.2629 18.4725C77.2629 18.4725 76.635 19.7997 75.5221 19.7997C73.7252 19.7997 74.9096 11.4432 74.981 10.9735C75.0372 10.5958 75.2669 9.78923 74.0009 9.72797C73.2352 9.69224 72.9136 9.98321 72.8574 10.3559L72.8064 10.7285C72.8064 10.7285 70.208 8.95204 67.2677 12.1476C65.7005 13.8475 65.1339 16.308 65.1084 18.2785V18.401C65.1084 18.401 64.4652 20.2694 62.9643 19.9886C61.9638 19.8048 61.8413 18.0181 61.8413 17.329C61.8413 16.0069 62.1425 14.5316 62.3875 13.3524C62.5406 12.602 62.6734 11.9537 62.6734 11.6014C62.6734 10.3354 62.3211 9.79944 61.4942 9.79944C60.3711 9.79944 59.3604 10.6928 58.2424 12.0762C56.8131 13.8373 55.7513 16.5939 55.7513 16.5939C55.7513 16.5939 55.7972 16.1038 55.8738 15.6291C55.9197 15.3228 56.0525 13.8986 56.2924 12.6122C56.4251 11.8975 56.4762 11.3105 56.4813 11.2492C56.5221 10.897 56.4455 10.5958 56.2516 10.3763C56.0627 10.1568 55.7768 10.0343 55.4654 10.0343C54.9651 10.0343 54.3219 10.3712 54.0157 11.3105C53.8778 11.7342 53.7962 12.0506 53.6992 12.5509L53.6073 13.0206L53.2602 12.7041C51.8819 11.4432 49.9778 9.93727 47.2416 9.93727C43.3926 9.93727 41.3149 13.5157 41.3149 16.8798C41.3149 17.2933 41.3405 17.6914 41.3915 18.059L41.4119 18.2019C41.4119 18.2019 40.6105 20.157 39.1965 19.7997C38.5788 19.6415 38.201 18.9829 38.201 17.4107C38.201 16.0987 38.4614 14.3223 38.6196 13.2503C38.6707 12.8878 38.7166 12.602 38.7268 12.4692L38.7626 12.0762C38.8698 10.8868 38.9004 10.3508 38.5073 10.0904C38.2163 9.90153 37.9152 9.80965 37.5782 9.80965C37.2413 9.80965 37.0014 9.95769 36.7768 10.121C36.4297 10.3712 35.2862 11.8924 33.1371 15.4249C33.1014 15.4811 33.0809 15.5117 33.0809 15.5168L32.8461 15.9711L32.2795 17.2218L32.5858 15.4096L32.6062 15.2922C32.6572 14.9859 32.744 14.4499 32.7849 14.2763L32.8767 13.8833C33.0197 13.2503 33.326 11.9383 33.3668 11.7035C33.4944 10.9327 33.4434 10.4171 33.2086 10.1312C33.035 9.92195 32.744 9.81475 32.3203 9.81475C31.5393 9.81475 30.9114 10.412 29.8292 12.1783C29.6607 12.4539 29.0277 13.5106 28.5275 14.3427C27.8792 15.4249 27.2921 16.2264 27.2921 16.2264L27.4299 14.7817C27.5371 14.1334 27.9251 11.1522 27.9302 11.0093C27.9302 10.3814 27.6188 10.0853 26.9552 10.0853C26.6846 10.0853 26.0261 10.1466 25.7505 10.6979C25.4952 11.2033 24.7959 13.4953 24.4538 17.0023C24.4538 17.0023 21.7381 19.6415 18.8284 19.6415C17.7564 19.6415 16.909 19.2229 16.6027 18.401C16.6027 18.401 18.1596 17.5842 18.8947 17.0687C20.7835 15.7465 22.1618 14.3988 22.1618 12.6734C22.1618 10.5601 20.2322 9.60546 18.6344 9.81475C15.8931 10.1772 13.5806 13.0716 13.5806 16.4357C13.5806 19.6006 15.3265 21.8825 18.3689 21.8825C21.8912 21.8825 24.3211 18.9523 24.3211 18.9523L24.2497 20.2898C24.2037 20.9891 24.4896 21.8825 25.6484 21.8825C25.9546 21.8825 26.5162 21.7855 26.8174 21.1219C28.6193 17.1452 30.5132 13.9905 30.5285 13.9598L30.5949 13.8526L30.9216 13.2196L31.4117 12.3978L31.0186 14.164C30.9471 14.5673 30.3243 18.1458 30.2376 19.7231C30.1916 20.5195 30.1916 21.3056 30.4979 21.6374C30.6562 21.8059 30.9063 21.8876 31.2892 21.8876C32.1417 21.8876 32.6725 21.5915 32.8665 20.9993C34.255 16.7624 35.7558 13.8986 35.8171 13.7812L35.8784 13.6689L36.6645 12.1221C36.6645 12.1221 36.0468 15.6546 36.0468 18.059C36.0468 19.2076 36.2714 21.3056 37.8947 21.7038C40.3961 22.3164 41.9326 19.7027 41.9326 19.7027L42.096 20.1622C42.8107 21.372 43.995 22.0101 45.5264 22.0101C48.6965 22.0101 50.7486 19.5241 50.7486 15.675C50.7486 13.286 49.6562 11.9179 49.6562 11.9179C49.6562 11.9179 50.866 12.3467 51.7542 12.9899C52.719 13.6842 53.4031 14.4244 53.4031 14.4244L53.3776 14.5826C53.3469 14.7664 53.3214 14.9502 53.2959 15.139C53.1938 15.8792 53.107 16.6501 53.0304 17.4413C52.959 18.1764 52.9232 18.84 52.9232 19.4169C52.9232 19.7691 52.9437 20.0907 52.9845 20.4021C53.0202 20.693 53.0917 20.9636 53.1938 21.1933C53.2295 21.2648 53.5409 21.8876 54.3424 21.8876C54.8733 21.8876 55.2153 21.6936 55.4705 21.1014C57.9361 15.3177 59.9117 13.4647 60.0852 13.2809C60.5447 12.7959 60.3354 13.6995 60.3354 13.6995L60.315 13.8169C60.315 13.8169 60.0087 15.7925 59.9372 16.3897C59.8657 16.9768 59.8351 17.5383 59.8351 18.059C59.8351 19.6721 60.1924 21.5047 62.0608 21.7957C64.6183 22.1939 65.5014 20.1775 65.5014 20.1775C65.5014 20.1775 66.4254 21.8825 68.6102 21.8825C71.8109 21.8825 72.8013 19.4169 72.8013 19.4169C73.1382 20.8972 73.7406 21.6987 75.1801 21.6987C76.7422 21.6987 77.8295 19.9324 77.8295 19.9324C77.8295 19.9324 78.733 21.8825 80.9434 21.8825C83.5009 21.8825 84.8077 19.9171 84.8588 19.8354L85.1549 19.3709C85.1549 19.3709 85.9869 21.4894 88.136 21.6119C90.1677 21.7293 91.5614 20.3102 91.5614 20.3102L91.5511 20.3051ZM3.83051 21.0657C1.57419 20.984 1.44657 19.2178 3.52422 18.7634C5.4181 18.35 7.00058 19.0136 7.00058 19.0136C7.00058 19.0136 6.52073 21.1627 3.83561 21.0657H3.83051ZM13.8563 3.2551C15.1631 3.3623 15.061 5.18471 14.7088 6.32818C13.6674 9.67692 11.1814 9.77391 11.1814 9.77391C11.1814 9.77391 11.9675 3.10196 13.8563 3.2551ZM10.9568 11.3768C10.9568 11.3768 15.1376 11.4023 16.5618 6.4558C17.3888 3.5767 16.2147 1.1162 13.7695 1.06515C11.2988 1.0141 9.38451 3.20916 8.48607 9.77391C8.48607 9.77391 6.09703 9.45742 5.04034 7.56865C4.54007 6.67531 3.78967 7.0888 4.02449 7.9413C4.82084 10.8153 8.33293 11.2798 8.33293 11.2798C8.33293 11.2798 8.18489 12.5509 7.97049 14.1079C7.76119 15.6189 7.39875 17.523 7.39875 17.523C7.39875 17.523 5.17817 16.8185 2.81976 17.3137C-0.809744 18.0743 -1.20792 22.5869 3.23325 23.0361C8.44013 23.5568 9.42025 19.9478 9.42025 19.9478C9.42025 19.9478 10.4412 20.448 11.8961 21.7497C13.5041 23.1944 14.2392 24.0877 14.571 23.7661C14.9385 23.4139 14.132 22.1836 12.6414 20.6216C10.9568 18.8502 9.78779 18.3908 9.78779 18.3908C9.78779 18.3908 10.0686 17.2167 10.3697 15.3177C10.6913 13.3064 10.9568 11.387 10.9568 11.387V11.3768Z" fill="#4A4A4A"/>
</g>
</svg>
