<svg width="69" height="19" viewBox="0 0 69 19" fill="none" xmlns="http://www.w3.org/2000/svg">
<g id="Group 1597879916">
<path id="Vector" d="M64.4408 0.639221H68.1108V17.8993H64.4408V0.639221Z" fill="black"/>
<path id="Vector_2" d="M48.7353 10.6075C48.559 9.20517 47.8699 7.92308 46.7962 6.99357C45.7224 6.06405 44.3442 5.55923 42.9179 5.56725C41.4915 5.56725 40.2816 6.11213 39.5203 7.14582L39.4803 7.20191V0.639221H35.7943V12.4424H35.8183C36.1068 16.0723 38.7511 18.2198 42.2528 18.2198C46.1151 18.2198 48.8155 15.6156 48.8155 11.7533C48.8155 11.3687 48.7834 10.9841 48.7273 10.6075H48.7353ZM42.2848 14.7983C41.6037 14.8223 40.9466 14.5899 40.4338 14.1492C39.921 13.7085 39.6004 13.0915 39.5363 12.4264C39.5123 12.2501 39.4963 12.0738 39.4963 11.8976C39.4963 11.7213 39.5123 11.545 39.5363 11.3687C39.5764 11.1123 39.6405 10.8559 39.7447 10.6075C39.969 10.1187 40.3216 9.70999 40.7784 9.41351C41.2351 9.12504 41.764 8.97279 42.3008 8.97279C42.8377 8.97279 43.3666 9.12504 43.8233 9.41351C44.2801 9.70198 44.6326 10.1187 44.857 10.6075C45.0253 11.0161 45.1054 11.4568 45.1054 11.8976C45.0974 13.6284 43.9676 14.8063 42.2928 14.8063L42.2848 14.7983Z" fill="black"/>
<path id="Vector_3" d="M54.9935 9.1571C55.3141 8.98882 55.6586 8.88465 56.0112 8.8526C55.6586 8.89267 55.306 8.99684 54.9935 9.1571Z" fill="black"/>
<path id="Vector_4" d="M58.6075 9.64592C58.5113 9.54175 58.4072 9.4536 58.295 9.37347C58.4072 9.4536 58.5113 9.54976 58.6075 9.64592Z" fill="black"/>
<path id="Vector_5" d="M54.1121 9.99042C54.1842 9.87022 54.2643 9.75804 54.3605 9.65387C54.2723 9.75804 54.1842 9.87022 54.1121 9.99042Z" fill="black"/>
<path id="Vector_6" d="M59.1443 10.6074C59.0321 10.2549 58.8398 9.92633 58.5994 9.64587C58.8478 9.92633 59.0321 10.2549 59.1443 10.6074Z" fill="black"/>
<path id="Vector_7" d="M54.6571 9.38141C54.553 9.46154 54.4488 9.5577 54.3607 9.66187C54.4488 9.5577 54.553 9.46955 54.6571 9.38141Z" fill="black"/>
<path id="Vector_8" d="M62.9345 11.8976C62.9345 11.4649 62.8944 11.0322 62.8223 10.6075C62.2774 7.63463 59.8415 5.56726 56.468 5.56726C53.0945 5.56726 50.6104 7.62661 50.0495 10.5995C49.9694 11.0241 49.9293 11.4569 49.9293 11.8896C49.9293 12.2341 49.9534 12.5707 50.0014 12.9152C50.4582 16.0243 52.9983 18.2118 56.46 18.2118C59.4889 18.2118 61.7966 16.5612 62.5819 14.0771H58.7757C58.311 14.7342 57.5337 14.9505 56.46 14.9505C55.1378 14.9505 54.056 14.3175 53.7596 12.9072H62.9265V11.8976H62.9345ZM59.1443 10.6075H53.8557C53.9198 10.3911 54.016 10.1828 54.1282 9.99046C54.2003 9.87027 54.2804 9.75808 54.3766 9.65391C54.4647 9.54975 54.5689 9.4616 54.673 9.37346C54.7772 9.29333 54.8894 9.22121 55.0096 9.15711C55.3301 8.98883 55.6747 8.88466 56.0272 8.85261C56.1795 8.83658 56.3398 8.82857 56.492 8.82857H56.7324C57.0289 8.8446 57.3173 8.89268 57.5978 8.98883C57.8622 9.06896 58.1026 9.19717 58.327 9.36545C58.4392 9.44558 58.5433 9.54173 58.6395 9.63789C58.8799 9.92636 59.0562 10.2549 59.1604 10.6155L59.1443 10.6075Z" fill="black"/>
<path id="Vector_9" d="M56.7084 8.83655C57.0049 8.85257 57.2933 8.90065 57.5738 8.99681C57.2933 8.90867 56.9968 8.85257 56.7084 8.83655Z" fill="black"/>
<path id="Vector_10" d="M34.1197 9.48564C33.2303 7.04166 30.9946 5.56726 28.0779 5.56726C24.2156 5.56726 21.5152 8.1715 21.5152 12.0338V12.0979C21.5472 16.2406 24.6964 18.2118 27.3888 18.2118C29.0635 18.2118 30.4017 17.4426 31.0667 16.0563L31.1469 17.4506V17.8833H34.5444V12.0258C34.5444 11.1604 34.4082 10.303 34.1117 9.48564H34.1197ZM28.0538 14.7983C26.4512 14.7983 25.3454 13.7085 25.2493 12.0979V11.8815C25.2493 10.1507 26.3791 8.96479 28.0538 8.96479C28.7109 8.94075 29.352 9.15711 29.8568 9.56577C30.3616 9.98245 30.6981 10.5594 30.7943 11.2004C30.8344 11.4248 30.8584 11.6492 30.8584 11.8815V12.138C30.7462 13.7326 29.6404 14.7983 28.0538 14.7983Z" fill="black"/>
<path id="Vector_11" d="M14.2873 5.94386C12.6045 5.94386 11.1782 6.3926 10.1445 7.29807C9.10282 6.3926 7.6765 5.94386 5.99376 5.94386C2.41193 5.94386 0 8.01123 0 12.0418V18.2599H3.686V12.0418C3.686 10.1427 4.62353 9.3414 6.00177 9.3414C7.28386 9.3414 8.18132 10.0465 8.30152 11.6892V18.2679H12.0035V11.6892C12.1157 10.0465 13.0132 9.3414 14.3033 9.3414C15.6815 9.3414 16.611 10.1427 16.611 12.0418V18.2599H20.281V12.0418C20.281 7.97918 17.8691 5.93585 14.2873 5.93585V5.94386Z" fill="black"/>
<path id="Vector_12" d="M64.4408 0.639221H68.1108V17.8993H64.4408V0.639221Z" fill="black"/>
</g>
</svg>
