<svg xmlns="http://www.w3.org/2000/svg" width="146" height="21" viewBox="0 0 146 21" fill="none">
<path d="M14.9469 13.3293L12.9604 0.418074H11.4827L7.50978 9.68958L3.43996 0.418074L1.98646 0.418074L0 13.3293H2.15603L3.24616 5.58257L6.63767 13.3293H7.99428L11.3131 5.5088L12.379 13.3293H14.9469ZM29.5788 13.3293L23.789 0.418074H22.9169L16.9091 13.3293H19.1378L20.3975 10.4765H25.6059L26.8656 13.3293H29.5788ZM24.8549 8.77964H21.1485L22.9654 4.59886C22.9654 4.57427 24.8549 8.77964 24.8549 8.77964ZM32.1709 0.418074V13.3293H34.7388V7.62378C35.2475 7.72216 35.7078 7.77134 36.2165 7.77134L39.4384 13.3293H42.297L38.7601 7.2057C40.0925 6.59088 40.9404 5.43502 40.9404 3.86107C40.9404 3.24625 40.7708 2.53306 40.4801 2.0412C39.6322 0.639411 38.2514 0.442668 36.7737 0.442668L32.1709 0.418074ZM34.7146 2.18876H35.7805C37.1371 2.18876 38.3483 2.65603 38.3483 4.25456C38.3483 5.5088 37.4035 6.71385 34.981 6.71385H34.7388V2.18876H34.7146ZM53.0287 13.3293V11.5095H47.3358V0.39348L44.768 0.39348V13.3047L53.0287 13.3293ZM64.3418 13.3293V11.5832L58.2613 11.5832V7.55H62.9368V5.77932H58.2613V2.16417H63.6151V0.418074L55.7177 0.418074V13.3293L64.3418 13.3293ZM93.4362 3.32003C93.1697 0.6886 91.0863 0 89.1725 0C84.9816 0 84.3033 2.7544 84.3033 4.05782C84.3033 6.32036 85.9748 7.42704 88.3731 7.82052C89.5601 8.01727 91.0137 8.38616 91.0137 9.93551C91.0137 10.9438 90.2142 12.1243 88.3247 12.1243C87.6948 12.1243 85.5146 12.0259 84.5213 9.59121L83.8188 9.83714C83.9884 11.7554 85.2481 13.6982 88.5427 13.6982C92.2249 13.6982 93.63 11.4357 93.63 9.41906C93.63 7.55 92.5398 6.12362 89.221 5.4842C87.5495 5.1645 86.7985 4.59886 86.7985 3.54137C86.7985 1.89365 88.5427 1.52475 89.5602 1.52475C89.9962 1.52475 92.0069 1.59853 92.661 3.49218L93.4362 3.32003ZM96.1494 0.418074V13.3293H98.7172V7.59919C99.2017 7.64838 99.662 7.72215 100.171 7.72215C102.448 7.72215 105.064 6.49251 105.064 3.81189C105.064 2.04121 103.877 0.418074 100.946 0.418074L96.1494 0.418074ZM98.7172 2.16417H99.88C101.019 2.16417 102.399 2.70521 102.399 4.35293C102.399 6.24658 100.34 6.73844 99.1048 6.73844H98.7172V2.16417ZM118.17 6.83681C118.17 2.87736 115.917 0.39348 112.283 0.39348C108.431 0.39348 106.445 3.17247 106.445 6.91059C106.445 10.6241 108.431 13.3293 112.259 13.3293C117.007 13.3293 118.17 9.34528 118.17 6.83681ZM115.578 6.83681C115.578 9.07476 114.972 11.7062 112.308 11.7062C109.619 11.7062 109.061 8.90261 109.061 6.68925C109.061 4.59886 109.812 2.01661 112.283 2.01661C114.875 2.01661 115.578 4.62345 115.578 6.83681ZM131.954 6.83681C131.954 2.87736 129.701 0.39348 126.067 0.39348C122.216 0.39348 120.229 3.17247 120.229 6.91059C120.229 10.6241 122.216 13.3293 126.043 13.3293C130.791 13.3293 131.954 9.34528 131.954 6.83681ZM129.362 6.83681C129.362 9.07476 128.756 11.7062 126.092 11.7062C123.403 11.7062 122.845 8.90261 122.845 6.68925C122.845 4.59886 123.596 2.01661 126.067 2.01661C128.659 2.01661 129.362 4.62345 129.362 6.83681ZM145.351 13.5015V0.418074H143.243V8.26319L136.436 0.418074H134.134V13.3293H136.242V3.86107L144.672 13.5015H145.351ZM77.1327 0.418074L72.7237 9.88632L69.1142 0.418074H66.3525L71.2944 13.0096C71.2944 13.0096 71.2944 13.1818 69.9863 15.1984C68.7508 17.1166 67.055 18.7643 64.7052 18.9857C62.5007 19.207 60.1267 18.4938 58.4067 17.215L57.9949 17.756L58.2129 18.002C59.521 19.2808 62.1616 20.4367 64.4387 20.4367C66.1587 20.4367 67.8302 19.8956 69.2353 18.9365C70.6646 17.9528 71.6578 16.551 72.5541 15.0754C72.8206 14.6327 73.0629 14.1655 73.3293 13.7228C74.7102 11.2389 79.6279 0.516445 79.6763 0.418074L77.1327 0.418074Z" fill="#000310"/>
</svg>