<svg width="161" height="23" viewBox="0 0 161 23" fill="none" xmlns="http://www.w3.org/2000/svg">
<g id="Group 1597879914">
<path id="Vector" d="M12.3534 3.11552C12.3534 1.34198 10.6676 0.806404 9.25404 0.867863V1.0259C10.0969 1.08736 10.7466 1.42978 10.7466 2.00047C10.7466 2.39557 10.4657 2.88724 9.6228 2.88724C8.95552 2.88724 7.84925 2.49215 6.81322 2.14973C5.67183 1.75464 4.58312 1.38588 3.67879 1.38588C1.90524 1.38588 0.561915 2.70287 0.561915 4.33593C0.561915 5.65292 1.58039 6.10948 1.99304 6.27629L2.01938 6.21484C1.75598 6.03924 1.58917 5.84608 1.58917 5.28416C1.58917 4.81005 1.93158 4.17789 2.84469 4.17789C3.67001 4.17789 4.74994 4.54665 6.18107 4.95053C7.41025 5.29294 8.73602 5.6178 9.47354 5.71438V8.59419L8.08631 9.73558L9.47354 10.9297V14.8718C8.76236 15.2757 7.93705 15.4074 7.22588 15.4074C5.90889 15.4074 4.69726 15.0387 3.69635 13.9324L7.43659 12.1149V5.88998L2.87103 7.92692C3.34515 6.71529 4.23192 5.81096 5.20649 5.2227L5.18015 5.15246C2.46716 5.88998 0 8.3747 0 11.4477C0 15.1265 2.94127 17.857 6.3391 17.857C10.0179 17.857 12.1778 14.9772 12.1426 11.9306H12.0724C11.5368 13.0983 10.6413 14.2046 9.63157 14.784V10.9384L11.0803 9.7707L9.63157 8.60297V5.72316C10.9749 5.72316 12.3621 4.83639 12.3621 3.1243M4.65336 13.2651L3.59099 13.8007C2.94127 12.9578 2.51106 11.7637 2.51106 10.2273C2.51106 9.5951 2.5813 8.73467 2.79202 8.12886L4.67092 7.28599L4.64458 13.2563H4.65336V13.2651ZM21.7479 8.20788L21.0367 8.76979L18.8681 6.83821L16.357 8.77857V1.28052L12.9416 3.64232C13.3367 3.77402 13.8108 3.98474 13.8108 4.89785V15.2669L12.6431 16.1537L12.7484 16.2591L13.3367 15.8552L15.3736 17.7165L18.1042 15.8991L18.0164 15.7674L17.3228 16.2239L16.3746 15.2757V9.02441L17.0243 8.55029L18.5169 9.84972V15.2845C18.5169 18.7262 17.753 19.4374 16.2077 19.9993V20.0871C18.7803 20.1925 21.0982 19.3233 21.0982 14.9157V8.98929L21.8708 8.35714L21.7654 8.22544L21.7479 8.20788ZM26.331 17.6902L30.2907 14.5119L30.1854 14.3626L28.1133 16.0044L25.734 14.1255V12.9578L29.843 10.0604L27.7709 6.83821L23.2053 9.34927V15.3196L22.3186 16.0132L22.4239 16.1449L23.2668 15.4777L26.3398 17.7078H26.331V17.6902ZM25.7252 12.712V8.19032L27.7182 11.3072L25.7252 12.712ZM46.6653 2.27265C46.6653 1.99169 46.595 1.75464 46.4897 1.42978H46.4282C46.1473 2.19363 45.84 2.59751 44.9532 2.59751C44.1806 2.59751 43.566 2.12339 43.2411 1.77219C43.2411 1.79853 40.6423 4.77493 40.6423 4.77493L40.774 4.88029L41.5115 4.03741C42.0734 4.46763 42.5738 4.96809 43.8206 4.98565V12.5715L38.5 3.35258C38.0873 2.65897 37.3761 1.62294 36.1645 1.62294C34.7334 1.62294 33.6534 2.85213 33.829 4.93297H33.9168C34.0222 4.41495 34.3295 3.76524 34.9529 3.76524C35.4533 3.76524 35.8572 4.23935 36.0943 4.66957V7.63718C34.4524 7.63718 33.5217 8.40104 33.5217 9.69168C33.5217 10.2273 33.9168 11.395 35.0319 11.5969V11.5355C34.8826 11.3862 34.7334 11.2545 34.7334 10.9472C34.7334 10.4468 35.1021 10.1746 35.7694 10.1746C35.8748 10.1746 36.0328 10.2009 36.0943 10.2185V14.0641C34.1627 14.0904 32.6789 15.144 32.6789 16.9702C32.6789 18.7965 34.1715 19.4989 35.7255 19.4111V19.3496C34.7509 19.2442 34.2505 18.7438 34.2505 18.0326C34.2505 17.26 34.8124 16.8385 35.5236 16.8385C36.2347 16.8385 36.7791 17.2951 37.2356 17.8131L39.8345 14.8894L39.7291 14.784L39.0619 15.5479C38.061 14.6611 37.42 14.2485 36.2699 14.0729V4.95931L43.6099 17.7517H44.005V5.00321C45.4098 4.91541 46.6653 3.86182 46.6653 2.27265ZM49.1324 17.6726L53.0922 14.4943L52.9868 14.345L50.9148 15.9869L48.5354 14.108V12.9403L52.6444 10.0429L50.5723 6.82065L46.0068 9.33171V15.3021L45.12 15.9957L45.2254 16.1274L46.0683 15.4601L49.1412 17.6902V17.6726H49.1324ZM48.5266 12.6944V8.17276L50.5197 11.2896L48.5266 12.6944ZM67.1576 7.8479L66.5518 8.30446L64.8222 6.82943L62.8116 8.64687L63.6369 9.41951V16.1976L61.5824 14.7928V9.29659L62.2935 8.79613L60.1776 6.82943L58.2109 8.64687L59.0362 9.41951V15.9693L58.9045 16.0571L56.9729 14.6523V9.27025C56.9729 8.01472 56.3408 7.64596 55.5418 7.15429C54.8745 6.74163 54.5233 6.35531 54.5233 5.72316C54.5233 5.02955 55.1291 4.74859 55.3223 4.64323C54.6287 4.61689 52.7059 5.3105 52.662 7.06649C52.6356 7.97082 53.0746 8.36592 53.5312 8.79613C53.9877 9.22635 54.418 9.639 54.418 10.4029V15.6796L53.4873 16.4171L53.5926 16.5225L54.4794 15.8288L56.7885 17.7078L58.9923 16.1713L61.4156 17.7078L66.1743 14.8982V8.79613L67.2366 7.97082L67.1488 7.83912H67.1576V7.8479ZM83.0932 2.72043L82.1889 3.54574L80.1519 1.77219L77.4038 3.97596V1.90389H77.237V16.7683C76.9385 16.7244 76.3063 16.5488 75.6127 16.4434V4.0023C75.6127 3.09796 74.963 1.83365 73.3387 1.83365C71.7144 1.83365 70.6959 3.20332 70.6959 4.38861H70.7662C70.854 3.85304 71.2227 3.37014 71.7583 3.37014C72.2939 3.37014 72.7943 3.71256 72.7943 4.93297V8.48005C71.2579 8.54151 70.3272 9.49853 70.3272 10.5346C70.3272 11.1228 70.6959 12.2203 71.8637 12.2642V12.1764C71.4686 12.0096 71.3895 11.8076 71.3895 11.5881C71.3895 11.0701 71.89 10.8945 72.5836 10.8945H72.7504V16.6103C71.4334 17.0668 70.8189 17.9536 70.8189 19.0511C70.8189 20.5612 72.0305 21.729 73.804 21.729C75.0596 21.729 75.9463 21.5095 77.0965 21.2548C78.0272 21.0617 79.0369 20.8422 79.5812 20.8422C80.2748 20.8422 80.5821 21.1495 80.5821 21.6412C80.5821 22.2733 80.3451 22.5894 79.9763 22.7035V22.7913C81.4689 22.5104 82.3381 21.6499 82.3381 20.3066C82.3381 18.9633 81.0211 18.0765 79.5461 18.0765C78.7822 18.0765 77.4038 18.3136 76.28 18.577C75.0244 18.8579 73.9445 18.9896 73.5494 18.9896C72.9173 18.9896 72.1446 18.7087 72.1446 17.8658C72.1446 17.1019 72.7768 16.4961 74.3308 16.4961C75.1737 16.4961 75.999 16.6278 77.035 16.8649C78.1413 17.1019 78.8964 17.4268 79.8446 17.4268C81.1616 17.4268 82.224 16.9527 82.224 15.0211V3.74768L83.1985 2.86091L83.0932 2.72921V2.72043ZM79.3705 8.67321C79.1334 8.93661 78.8525 9.14733 78.3959 9.14733C77.8955 9.14733 77.6321 8.88393 77.395 8.67321V4.20423L78.0447 3.68622L79.3617 4.81005V8.68199H79.3705V8.67321ZM79.3705 10.7892C79.151 10.5697 78.87 10.3765 78.3959 10.3765C77.9218 10.3765 77.597 10.6136 77.395 10.7892V8.88393C77.5882 9.05075 77.913 9.31415 78.3959 9.31415C78.8788 9.31415 79.1598 9.09465 79.3705 8.88393V10.7892ZM79.3705 15.2669C79.3705 16.0044 79.0017 16.8298 78.0535 16.8298C77.9043 16.8298 77.5531 16.8034 77.4038 16.7859V11.0087C77.6233 10.8155 77.9043 10.5521 78.4047 10.5521C78.8613 10.5521 79.1159 10.7716 79.3793 11.0087V15.2757H79.3705V15.2669ZM87.0793 17.6726L91.4956 14.9245V8.91027L88.6421 6.81187L84.2258 9.34049V15.2933L83.3566 15.9869L83.4444 16.1186L84.1556 15.5303L87.0793 17.6726ZM86.7544 14.5558V8.14642L88.9582 9.78826V16.1976L86.7544 14.5558ZM99.9331 6.96113C99.5907 7.19819 99.2834 7.32989 98.9585 7.32989C98.6161 7.32989 98.1859 7.11039 97.9576 6.82943C97.9576 6.85577 96.3157 8.60297 96.3157 8.60297L94.6739 6.82943L91.996 8.69077L92.0838 8.84003L92.795 8.36592L93.7696 9.42829V15.2494L92.6018 16.1361L92.7072 16.2415L93.2955 15.8376L95.4817 17.699L98.2473 15.864L98.1595 15.7323L97.4484 16.1625L96.3245 15.144V8.75223C96.7811 9.25269 97.2991 9.6829 97.9225 9.6829C99.0463 9.6829 99.8014 8.33958 99.9331 6.95235M110.364 15.5655L109.538 16.0835L104.973 9.27025L105.21 8.94539C105.71 9.24391 106.158 9.65656 107.115 9.65656C108.072 9.65656 109.284 8.65565 109.389 6.82065C109.152 7.14551 108.678 7.53182 107.896 7.53182C107.335 7.53182 106.773 7.16307 106.43 6.82065L103.313 11.4038L107.449 17.699L110.451 15.7059L110.364 15.5567V15.5655ZM104.823 15.7323L104.13 16.1888L103.182 15.2406V1.28052L99.7663 3.64232C100.161 3.77402 100.635 3.98474 100.635 4.89785V15.2669L99.4677 16.1537L99.5731 16.2591L100.161 15.8552L102.198 17.7165L104.929 15.8991L104.841 15.7674L104.823 15.7323ZM124.921 3.09796C124.921 1.32442 123.235 0.788844 121.821 0.850303V1.0259C122.664 1.08736 123.314 1.42978 123.314 2.00047C123.314 2.39557 123.033 2.88724 122.19 2.88724C121.523 2.88724 120.417 2.49215 119.381 2.14973C118.239 1.75464 117.15 1.38588 116.246 1.38588C114.473 1.38588 113.129 2.70287 113.129 4.32715C113.129 5.64414 114.148 6.1007 114.56 6.26751L114.587 6.20606C114.323 6.03046 114.157 5.8373 114.157 5.27538C114.157 4.80127 114.499 4.16911 115.412 4.16911C116.237 4.16911 117.317 4.53787 118.748 4.94175C119.978 5.28416 121.303 5.60902 122.041 5.7056V8.58541L120.654 9.7268L122.041 10.9209V14.8631C121.33 15.2669 120.504 15.3986 119.793 15.3986C118.476 15.3986 117.256 15.0299 116.264 13.9236L120.004 12.1062V5.88998L115.438 7.92692C115.913 6.71529 116.799 5.81096 117.774 5.2227L117.748 5.15246C115.043 5.88998 112.576 8.3747 112.576 11.4477C112.576 15.1265 115.517 17.857 118.915 17.857C122.594 17.857 124.754 14.9772 124.719 11.9306H124.657C124.122 13.0983 123.226 14.2046 122.217 14.784V10.9384L123.665 9.7707L122.217 8.60297V5.72316C123.56 5.72316 124.947 4.83639 124.947 3.1243M117.238 13.2739L116.176 13.8095C115.526 12.9666 115.096 11.7725 115.096 10.236C115.096 9.60388 115.157 8.74345 115.377 8.13764L117.256 7.29477L117.23 13.2651L117.238 13.2739ZM127.713 2.46581L125.807 4.06375L127.432 5.89876L129.337 4.30081L127.713 2.46581ZM130.61 15.7674L129.917 16.2239L128.968 15.2757V8.98051L129.767 8.34836L129.662 8.21666L128.995 8.73467L127.414 6.85577L124.815 8.67321L124.903 8.82247L125.553 8.39226L126.422 9.47219V15.2757L125.254 16.1625L125.36 16.2678L125.948 15.864L127.985 17.7253L130.715 15.9079L130.628 15.7762H130.61V15.7674ZM145.211 15.6796L144.561 16.1098L143.543 15.1352V8.96295L144.368 8.3308L144.263 8.1991L143.525 8.76101L141.357 6.82943L138.916 8.73467L136.774 6.82943L134.368 8.70833L132.744 6.82943L130.145 8.64687L130.233 8.79613L130.882 8.36592L131.813 9.42829V15.2318L131.102 15.943L133.174 17.699L135.184 15.8815L134.359 15.1089V8.92783L134.895 8.53273L136.387 9.83216V15.2406L135.694 15.9518L137.792 17.7078L139.759 15.8903L138.933 15.1177V8.93661L139.452 8.52395L140.962 9.84094V15.1616L140.356 15.7937L142.472 17.7253L145.264 15.8201L145.176 15.6884H145.211V15.6796ZM152.762 14.3626L150.69 16.0044L148.31 14.1255V12.9578L152.419 10.0604L150.347 6.83821L145.782 9.34927V15.4338L148.916 17.7078L152.876 14.5294L152.771 14.3802V14.3626H152.762ZM148.302 12.712V8.19032L150.295 11.3072L148.302 12.712ZM160.699 11.8603L158.943 10.517C160.111 9.49853 160.523 8.20788 160.523 7.27721C160.523 7.14551 160.497 6.90845 160.479 6.68895H160.409C160.242 7.16307 159.777 7.57572 159.066 7.57572C158.355 7.57572 157.96 7.18063 157.529 6.70651L153.508 8.93661V12.2027L155.045 13.4144C153.508 14.7753 153.21 15.6181 153.21 16.3995C153.21 17.181 153.666 17.8658 154.448 18.1731L154.509 18.0677C154.316 17.9009 154.14 17.7868 154.14 17.3741C154.14 17.0756 154.448 16.6015 155.141 16.6015C156.028 16.6015 156.572 17.2073 156.853 17.5322C156.853 17.5058 160.699 15.1704 160.699 15.1704V11.8603ZM159.795 9.18245C159.189 10.2624 157.854 11.3247 157.064 11.9306L156.089 11.1053V7.92692C156.485 8.79613 157.284 9.52487 158.32 9.52487C158.925 9.52487 159.32 9.41951 159.786 9.18245M158.118 16.3205C157.661 15.3021 156.686 14.5645 155.607 14.5645C155.343 14.5645 154.544 14.5382 153.851 14.9684C154.263 14.2748 155.492 13.0281 157.055 12.0886L158.118 12.9754V16.3117V16.3205Z" fill="black"/>
</g>
</svg>
