<svg width="128" height="30.06" viewBox="0 0 72 17" fill="none" xmlns="http://www.w3.org/2000/svg">
  <path id="Vector" fill-rule="evenodd" clip-rule="evenodd" d="M23.74 6.76C22.44 6.35 20.89 5.83 20.89 4.49C20.89 3.46 22.02 2.77 23.09 2.77C24.16 2.77 25.24 3.41 25.41 4.73H28.35C28.15 1.25 25.16 0.01 23.21 0.01C19.95 0.01 17.95 2.17 17.95 4.67C17.95 8.17 21.03 8.89 22.79 9.54C24.32 10.1 25.79 10.59 25.79 12.01C25.79 13.43 24.68 14.23 23.36 14.23C21.72 14.23 20.59 13.12 20.48 11.29H17.48C17.54 15.72 21.15 17 23.25 17C26.7 17 28.73 14.76 28.73 11.85C28.72 8.05 25.12 7.21 23.74 6.77V6.76ZM8.46 0C3.6 0 0 3.96 0 8.4C0 12.51 3.19 17.01 8.46 17.01C13.73 17.01 16.92 12.44 16.92 8.48C16.91 3.84 13.21 0.01 8.46 0.01V0ZM8.46 14.2C5.2 14.2 2.98 11.38 2.98 8.49C2.98 5.6 5.18 2.8 8.46 2.8C11.74 2.8 13.94 5.62 13.94 8.46C13.93 11.5 11.59 14.21 8.46 14.21V14.2ZM37.81 14.2C34.55 14.2 32.48 11.38 32.48 8.49C32.48 5.6 34.54 2.8 37.81 2.8C40.52 2.8 41.9 4.67 42.36 5.81H45.56C45.08 3.42 42.37 0 37.81 0C32.95 0 29.5 3.96 29.5 8.4C29.5 12.51 32.55 17.01 37.81 17.01C42.44 17.01 45.07 13.69 45.61 11.18H42.31C41.85 12.32 40.52 14.21 37.81 14.21V14.2ZM60.03 2.66H59.97C58.84 0.91 56.9 0 54.72 0C49.08 0 46.41 4.52 46.41 8.45C46.41 12.38 49.09 17 54.72 17C56.89 17 58.85 16.09 59.98 14.34H60.04V16.58H63.04V0.44H60.04V2.66H60.03ZM54.72 14.2C51.12 14.2 49.38 10.99 49.38 8.49C49.38 5.99 51.13 2.8 54.72 2.8C57.72 2.8 60.12 5.07 60.12 8.49C60.12 11.91 57.71 14.2 54.72 14.2ZM68.08 7.88C68.08 5.52 68.87 4.38 69.83 3.78C70.51 3.34 71.5 3.14 72 3.14V0.01C71.26 0.01 69.23 0.34 67.99 2.25H67.95V0.44H65.1V16.59H68.1C68.1 16.59 68.09 10.18 68.09 7.88H68.08Z" fill="#000310"/>
</svg>
