<svg width="82" height="20" viewBox="0 0 82 20" fill="none" xmlns="http://www.w3.org/2000/svg">
<g id="Group 39473">
<path id="Vector" d="M30.8032 12.0529C32.7318 11.6917 34.0349 10.7599 33.9661 7.92431C33.8791 4.22338 31.6101 3.49458 27.4803 3.49458H23.8671V19.9141H27.4183V13.3782H28.2523C29.4631 13.3782 29.9781 14.0405 30.0558 15.593C30.16 17.569 30.2356 19.2845 30.4629 19.9131H34.1517C33.7701 19.1674 33.7394 17.7467 33.6305 15.5656C33.4934 12.7828 32.9455 12.4785 30.8032 12.0529ZM28.0615 10.5985H27.4183V6.27424H28.0615C29.901 6.27424 30.442 6.98932 30.442 8.35463C30.442 10.2626 29.8077 10.5985 28.0615 10.5985ZM0 6.27213H2.8147L2.8147 19.9141H6.38155V6.27213H9.27496V3.49247H0L0 6.27213ZM17.6393 10.2483H14.4279V3.49247H10.8632V19.9141H14.4279V13.028H17.6372V19.9141H21.4803V3.49247H17.6393V10.2483ZM39.4178 12.8851H42.7787V10.1133H39.4178V6.27213H43.7842V3.49247H35.8509V19.9141H43.7941V17.1345H39.4157L39.4178 12.8851ZM49.3042 3.49247L45.7597 3.49247V19.9141H49.3042C54.5734 19.9141 56.1715 16.9699 56.1715 11.8768V11.5298C56.1715 6.01847 54.638 3.49247 49.3042 3.49247ZM50.0454 17.078H49.3245V6.32855H50.0454C52.2398 6.32855 52.7225 8.04033 52.7235 11.5836C52.7225 15.0725 52.2398 17.078 50.0454 17.078ZM75.0196 0.708069H70.8815V17.1297H74.4634V11.755H75.0196C79.2708 11.755 81.1817 9.86232 81.1817 6.21781C81.1817 2.68141 79.2046 0.708069 75.0196 0.708069ZM74.9596 8.9769H74.4634V3.4661H74.9581C76.8246 3.4661 77.7081 4.17855 77.7081 6.24471C77.7081 8.31086 76.8262 8.9769 74.9596 8.9769ZM65.0925 11.6453C65.0925 13.4994 64.8444 14.4033 63.4903 14.4033C62.1189 14.4033 61.8874 13.4994 61.8874 11.6453V0.708069L58.2033 0.708069V11.2181C58.2033 15.3536 59.2223 17.3749 63.4903 17.3749C67.7582 17.3749 68.7762 15.3536 68.7762 11.2181V0.708069L65.0925 0.708069V11.6453Z" fill="black"/>
</g>
</svg>
