<svg width="500" height="357" viewBox="0 0 500 357" fill="none" xmlns="http://www.w3.org/2000/svg">
<path d="M465 343H320V307H465V343Z" fill="#27D0E8"/>
<path d="M342.817 321.615L336.189 328.06L332.875 324.837" stroke="white" stroke-width="2.57796"/>
<path d="M359.487 322.197C359.487 322.929 359.231 323.532 358.72 324.004C358.217 324.47 357.565 324.702 356.765 324.702H354.831V327.859H353.562V319.852H356.902C357.68 319.852 358.305 320.07 358.778 320.504C359.25 320.931 359.487 321.496 359.487 322.197ZM358.206 322.266C358.206 321.892 358.084 321.595 357.84 321.374C357.596 321.145 357.272 321.03 356.867 321.03H354.831V323.524H356.81C357.237 323.524 357.577 323.413 357.828 323.192C358.08 322.964 358.206 322.655 358.206 322.266ZM365.402 324.782V325.286H361.147C361.147 325.812 361.3 326.227 361.605 326.532C361.91 326.83 362.325 326.978 362.851 326.978C363.576 326.978 364.052 326.7 364.281 326.143H365.345C365.2 326.7 364.895 327.146 364.43 327.482C363.972 327.817 363.416 327.985 362.76 327.985C361.929 327.985 361.261 327.714 360.758 327.173C360.262 326.624 360.015 325.896 360.015 324.988C360.015 324.065 360.27 323.322 360.781 322.758C361.3 322.193 361.974 321.911 362.806 321.911C363.591 321.911 364.22 322.174 364.693 322.7C365.166 323.219 365.402 323.913 365.402 324.782ZM363.858 323.318C363.599 323.051 363.24 322.918 362.783 322.918C362.325 322.918 361.948 323.051 361.65 323.318C361.361 323.585 361.197 323.947 361.158 324.405H364.247C364.247 323.947 364.117 323.585 363.858 323.318ZM369.947 321.968V323.135H369.719C368.575 323.135 368.003 323.741 368.003 324.954V327.859H366.79V322.026H367.991V322.952C368.289 322.296 368.83 321.968 369.616 321.968H369.947ZM375.653 326.086C375.653 326.666 375.432 327.127 374.989 327.47C374.547 327.813 373.948 327.985 373.194 327.985C372.431 327.985 371.817 327.813 371.352 327.47C370.894 327.119 370.647 326.635 370.608 326.018H371.821C371.859 326.345 372.004 326.597 372.256 326.772C372.507 326.948 372.843 327.036 373.262 327.036C373.643 327.036 373.941 326.967 374.154 326.83C374.368 326.685 374.475 326.487 374.475 326.235C374.475 326.021 374.391 325.873 374.223 325.789C374.063 325.697 373.735 325.606 373.239 325.514C372.705 325.415 372.275 325.324 371.947 325.24C371.184 325.003 370.803 324.512 370.803 323.764C370.803 323.192 371.009 322.742 371.421 322.415C371.832 322.079 372.393 321.911 373.102 321.911C373.811 321.911 374.375 322.083 374.795 322.426C375.222 322.761 375.458 323.227 375.504 323.821H374.349C374.265 323.188 373.857 322.872 373.125 322.872C372.774 322.872 372.492 322.948 372.278 323.101C372.065 323.253 371.958 323.455 371.958 323.707C371.989 323.959 372.092 324.13 372.267 324.222C372.442 324.313 372.805 324.401 373.354 324.485C373.933 324.584 374.345 324.668 374.589 324.736C374.902 324.82 375.157 324.977 375.355 325.205C375.554 325.427 375.653 325.72 375.653 326.086ZM382.302 324.954C382.302 325.876 382.047 326.612 381.536 327.161C381.025 327.71 380.327 327.985 379.443 327.985C378.558 327.985 377.86 327.71 377.35 327.161C376.839 326.612 376.583 325.876 376.583 324.954C376.583 324.039 376.842 323.303 377.361 322.746C377.88 322.19 378.573 321.911 379.443 321.911C380.312 321.911 381.006 322.19 381.525 322.746C382.043 323.303 382.302 324.039 382.302 324.954ZM378.219 323.535C377.937 323.879 377.796 324.351 377.796 324.954C377.796 325.556 377.941 326.029 378.23 326.372C378.528 326.715 378.939 326.887 379.466 326.887C379.984 326.887 380.384 326.715 380.667 326.372C380.949 326.029 381.09 325.556 381.09 324.954C381.09 324.351 380.941 323.879 380.644 323.535C380.354 323.185 379.95 323.009 379.431 323.009C378.913 323.009 378.509 323.185 378.219 323.535ZM388.716 324.084V327.859H387.515V324.21C387.515 323.837 387.412 323.539 387.206 323.318C387 323.097 386.718 322.986 386.36 322.986C385.91 322.986 385.551 323.143 385.284 323.455C385.025 323.768 384.895 324.195 384.895 324.736V327.859H383.683V322.026H384.895V322.895C385.094 322.552 385.334 322.304 385.616 322.151C385.898 321.991 386.253 321.911 386.68 321.911C387.336 321.911 387.839 322.098 388.19 322.472C388.54 322.838 388.716 323.375 388.716 324.084ZM395.002 323.799V327.859H393.847V326.978C393.42 327.649 392.783 327.985 391.937 327.985C391.35 327.985 390.884 327.829 390.541 327.516C390.206 327.196 390.038 326.769 390.038 326.235C390.038 325.648 390.213 325.236 390.564 325C390.93 324.748 391.361 324.584 391.857 324.508L393.103 324.313C393.332 324.283 393.511 324.218 393.641 324.119C393.771 324.012 393.835 323.844 393.835 323.616C393.835 323.127 393.477 322.883 392.76 322.883C391.944 322.883 391.472 323.211 391.342 323.867H390.198C390.267 323.265 390.534 322.788 390.999 322.437C391.464 322.087 392.07 321.911 392.817 321.911C393.519 321.911 394.057 322.071 394.43 322.392C394.811 322.704 395.002 323.173 395.002 323.799ZM393.801 325.388V324.965C393.588 325.034 393.317 325.095 392.989 325.148L392.326 325.251C392.036 325.297 391.78 325.381 391.559 325.503C391.338 325.632 391.227 325.857 391.227 326.178C391.227 326.429 391.311 326.624 391.479 326.761C391.655 326.898 391.899 326.967 392.211 326.967C392.676 326.967 393.058 326.822 393.355 326.532C393.652 326.243 393.801 325.861 393.801 325.388ZM397.937 319.727V327.859H396.724V319.727H397.937ZM399.646 321.008V319.612H400.939V321.008H399.646ZM399.681 327.859V322.026H400.893V327.859H399.681ZM407.157 326.841V327.859H402.296V326.761L405.693 323.032H402.342V322.026H407.169V323.124L403.749 326.841H407.157ZM413.253 324.782V325.286H408.998C408.998 325.812 409.151 326.227 409.456 326.532C409.761 326.83 410.177 326.978 410.703 326.978C411.427 326.978 411.904 326.7 412.133 326.143H413.196C413.051 326.7 412.746 327.146 412.281 327.482C411.824 327.817 411.267 327.985 410.611 327.985C409.78 327.985 409.113 327.714 408.61 327.173C408.114 326.624 407.866 325.896 407.866 324.988C407.866 324.065 408.121 323.322 408.632 322.758C409.151 322.193 409.826 321.911 410.657 321.911C411.442 321.911 412.072 322.174 412.544 322.7C413.017 323.219 413.253 323.913 413.253 324.782ZM411.709 323.318C411.45 323.051 411.092 322.918 410.634 322.918C410.177 322.918 409.799 323.051 409.502 323.318C409.212 323.585 409.048 323.947 409.01 324.405H412.098C412.098 323.947 411.969 323.585 411.709 323.318ZM418.737 319.727H419.949V327.859H418.771V326.887C418.336 327.619 417.669 327.985 416.769 327.985C416.014 327.985 415.404 327.707 414.939 327.15C414.474 326.586 414.242 325.846 414.242 324.931C414.242 324.039 414.489 323.314 414.985 322.758C415.481 322.193 416.11 321.911 416.872 321.911C417.742 321.911 418.363 322.231 418.737 322.872V319.727ZM418.783 324.931C418.783 324.344 418.63 323.867 418.325 323.501C418.02 323.135 417.616 322.952 417.113 322.952C416.609 322.952 416.205 323.135 415.9 323.501C415.603 323.86 415.454 324.332 415.454 324.919C415.454 325.514 415.603 325.995 415.9 326.361C416.205 326.727 416.609 326.91 417.113 326.91C417.616 326.91 418.02 326.731 418.325 326.372C418.63 326.006 418.783 325.526 418.783 324.931ZM431.962 323.867C431.977 325.103 431.607 326.117 430.852 326.91C430.097 327.695 429.148 328.08 428.004 328.065C426.853 328.08 425.9 327.695 425.145 326.91C424.39 326.117 424.02 325.103 424.035 323.867C424.035 322.624 424.405 321.614 425.145 320.836C425.892 320.051 426.845 319.658 428.004 319.658C429.148 319.643 430.097 320.032 430.852 320.825C431.607 321.618 431.977 322.632 431.962 323.867ZM429.949 326.063C430.429 325.537 430.669 324.805 430.669 323.867C430.669 322.929 430.429 322.197 429.949 321.671C429.476 321.137 428.828 320.87 428.004 320.87C427.181 320.87 426.529 321.137 426.048 321.671C425.575 322.197 425.339 322.929 425.339 323.867C425.339 324.805 425.575 325.537 426.048 326.063C426.529 326.589 427.181 326.853 428.004 326.853C428.828 326.853 429.476 326.589 429.949 326.063ZM436.258 320.767H435.709C435.45 320.767 435.263 320.825 435.149 320.939C435.042 321.046 434.988 321.229 434.988 321.488V322.026H436.109V323.078H434.988V327.859H433.787V323.078H432.884V322.026H433.787V321.568C433.787 320.889 433.917 320.413 434.176 320.138C434.436 319.864 434.882 319.727 435.515 319.727H436.258V320.767ZM440.154 320.767H439.605C439.345 320.767 439.159 320.825 439.044 320.939C438.937 321.046 438.884 321.229 438.884 321.488V322.026H440.005V323.078H438.884V327.859H437.683V323.078H436.779V322.026H437.683V321.568C437.683 320.889 437.813 320.413 438.072 320.138C438.331 319.864 438.777 319.727 439.41 319.727H440.154V320.767ZM446.122 324.782V325.286H441.867C441.867 325.812 442.02 326.227 442.325 326.532C442.63 326.83 443.046 326.978 443.572 326.978C444.296 326.978 444.773 326.7 445.002 326.143H446.065C445.92 326.7 445.615 327.146 445.15 327.482C444.693 327.817 444.136 327.985 443.48 327.985C442.649 327.985 441.982 327.714 441.479 327.173C440.983 326.624 440.735 325.896 440.735 324.988C440.735 324.065 440.99 323.322 441.501 322.758C442.02 322.193 442.695 321.911 443.526 321.911C444.311 321.911 444.941 322.174 445.413 322.7C445.886 323.219 446.122 323.913 446.122 324.782ZM444.578 323.318C444.319 323.051 443.961 322.918 443.503 322.918C443.046 322.918 442.668 323.051 442.371 323.318C442.081 323.585 441.917 323.947 441.879 324.405H444.967C444.967 323.947 444.838 323.585 444.578 323.318ZM450.668 321.968V323.135H450.439C449.295 323.135 448.723 323.741 448.723 324.954V327.859H447.511V322.026H448.712V322.952C449.009 322.296 449.551 321.968 450.336 321.968H450.668Z" fill="white"/>
<g filter="url(#filter0_d_453_2437)">
<rect x="35" y="21" width="430" height="285.793" fill="white"/>
</g>
<rect x="223" y="127" width="182" height="10" rx="5" fill="#D6D5E6"/>
<rect x="223" y="143" width="165" height="10" rx="5" fill="#D6D5E6"/>
<rect x="223" y="95" width="98" height="16" rx="8" fill="#D6D5E6"/>
<path d="M233.1 205L225.5 205L225.5 212.6" stroke="#D6D5E6" stroke-width="2.17146"/>
<path d="M255.9 243.844L263.5 243.844L263.5 236.244" stroke="#D6D5E6" stroke-width="2.17146"/>
<path d="M263.5 212.6L263.5 205L255.9 205" stroke="#D6D5E6" stroke-width="2.17146"/>
<path d="M225.5 236.245L225.5 243.845L233.1 243.845" stroke="#D6D5E6" stroke-width="2.17146"/>
<rect x="241.775" y="211.997" width="9.27662" height="9.27662" transform="rotate(90 241.775 211.997)" stroke="#D6D5E6" stroke-width="2.17146"/>
<rect x="257.071" y="211.997" width="9.27365" height="9.27365" transform="rotate(90 257.071 211.997)" stroke="#D6D5E6" stroke-width="2.17146"/>
<rect x="241.772" y="227.295" width="9.27365" height="9.27365" transform="rotate(90 241.772 227.295)" stroke="#D6D5E6" stroke-width="2.17146"/>
<rect x="258.158" y="233.701" width="3.81443" height="3.81443" transform="rotate(90 258.158 233.701)" fill="#D6D5E6"/>
<rect x="250.53" y="226.072" width="3.81443" height="3.81443" transform="rotate(90 250.53 226.072)" fill="#D6D5E6"/>
<rect x="250.53" y="233.701" width="3.81443" height="3.81443" transform="rotate(90 250.53 233.701)" fill="#D6D5E6"/>
<rect x="254.344" y="229.887" width="3.81443" height="3.81443" transform="rotate(90 254.344 229.887)" fill="#D6D5E6"/>
<rect x="258.159" y="229.887" width="3.81443" height="3.81443" transform="rotate(90 258.159 229.887)" fill="#D6D5E6"/>
<rect x="43.9922" y="29.8965" width="128.498" height="268" fill="#F6F5FA"/>
<line x1="89.5073" y1="116.737" x2="172.252" y2="116.737" stroke="#E8E7F1" stroke-width="1.47794"/>
<line x1="89.5073" y1="122.836" x2="172.252" y2="122.836" stroke="#E8E7F1" stroke-width="1.47794"/>
<line x1="89.5073" y1="128.936" x2="172.252" y2="128.936" stroke="#E8E7F1" stroke-width="1.47794"/>
<line x1="89.5073" y1="135.035" x2="172.252" y2="135.035" stroke="#E8E7F1" stroke-width="1.47794"/>
<line x1="89.5073" y1="141.135" x2="172.252" y2="141.135" stroke="#E8E7F1" stroke-width="1.47794"/>
<line x1="89.5073" y1="147.234" x2="172.252" y2="147.234" stroke="#E8E7F1" stroke-width="1.47794"/>
<line x1="89.5073" y1="159.433" x2="172.252" y2="159.433" stroke="#E8E7F1" stroke-width="1.47794"/>
<line x1="89.5073" y1="165.532" x2="172.252" y2="165.532" stroke="#E8E7F1" stroke-width="1.47794"/>
<line x1="89.5073" y1="171.632" x2="172.252" y2="171.632" stroke="#E8E7F1" stroke-width="1.47794"/>
<line x1="89.5073" y1="177.731" x2="172.252" y2="177.731" stroke="#E8E7F1" stroke-width="1.47794"/>
<line x1="89.5073" y1="214.327" x2="172.252" y2="214.327" stroke="#E8E7F1" stroke-width="1.47794"/>
<line x1="89.5073" y1="189.93" x2="172.252" y2="189.93" stroke="#E8E7F1" stroke-width="1.47794"/>
<line x1="89.5073" y1="226.526" x2="172.252" y2="226.526" stroke="#E8E7F1" stroke-width="1.47794"/>
<line x1="89.5073" y1="202.129" x2="172.252" y2="202.129" stroke="#E8E7F1" stroke-width="1.47794"/>
<line x1="89.5073" y1="238.725" x2="172.252" y2="238.725" stroke="#E8E7F1" stroke-width="1.47794"/>
<line x1="89.5073" y1="153.333" x2="172.252" y2="153.333" stroke="#E8E7F1" stroke-width="1.47794"/>
<line x1="89.5073" y1="183.83" x2="172.252" y2="183.83" stroke="#E8E7F1" stroke-width="1.47794"/>
<line x1="89.5073" y1="220.427" x2="172.252" y2="220.427" stroke="#E8E7F1" stroke-width="1.47794"/>
<line x1="89.5073" y1="196.029" x2="172.252" y2="196.029" stroke="#E8E7F1" stroke-width="1.47794"/>
<line x1="89.5073" y1="232.626" x2="172.252" y2="232.626" stroke="#E8E7F1" stroke-width="1.47794"/>
<line x1="89.5073" y1="208.228" x2="172.252" y2="208.228" stroke="#E8E7F1" stroke-width="1.47794"/>
<line x1="89.5073" y1="244.825" x2="172.252" y2="244.825" stroke="#E8E7F1" stroke-width="1.47794"/>
<line x1="89.5073" y1="250.87" x2="172.252" y2="250.87" stroke="#E8E7F1" stroke-width="1.47794"/>
<rect width="45.7529" height="85.665" transform="matrix(1 0 0 -1 43.7544 116.298)" fill="#E8E7F1"/>
<rect x="44.1333" y="251.661" width="9.17793" height="9.17793" fill="#E8E7F1"/>
<rect x="62.489" y="251.661" width="9.17793" height="9.17793" fill="#E8E7F1"/>
<rect x="80.7462" y="251.661" width="9.17793" height="9.17793" fill="#E8E7F1"/>
<rect x="53.3104" y="260.839" width="9.17793" height="9.17793" fill="#E8E7F1"/>
<rect x="71.5956" y="260.839" width="9.17793" height="9.17793" fill="#E8E7F1"/>
<rect x="53.3104" y="279.197" width="9.17793" height="9.17793" fill="#E8E7F1"/>
<rect x="71.5956" y="279.197" width="9.17793" height="9.17793" fill="#E8E7F1"/>
<rect x="44.1333" y="270.016" width="9.17793" height="9.17793" fill="#E8E7F1"/>
<rect x="44.1333" y="288.375" width="9.17793" height="9.17793" fill="#E8E7F1"/>
<rect x="62.489" y="270.016" width="9.17793" height="9.17793" fill="#E8E7F1"/>
<rect x="80.7462" y="270.016" width="9.17793" height="9.17793" fill="#E8E7F1"/>
<rect x="62.489" y="288.375" width="9.17793" height="9.17793" fill="#E8E7F1"/>
<rect x="80.7462" y="288.375" width="9.17793" height="9.17793" fill="#E8E7F1"/>
<rect x="395" y="37" width="52" height="32" fill="#F3F2F8"/>
<line x1="412.445" y1="48.0919" x2="407.607" y2="58.7087" stroke="#B6B6B6" stroke-width="1.33333"/>
<line x1="417.175" y1="48.0916" x2="412.337" y2="58.7084" stroke="#B6B6B6" stroke-width="1.33333"/>
<path d="M423.31 57.144C422.75 57.1547 422.259 57.0187 421.838 56.736C421.422 56.4533 421.115 56.0933 420.918 55.656C420.721 55.2133 420.625 54.736 420.63 54.224C420.625 53.7013 420.726 53.2187 420.934 52.776C421.142 52.328 421.459 51.9627 421.886 51.68C422.318 51.3973 422.819 51.2587 423.39 51.264C424.083 51.264 424.659 51.4587 425.118 51.848C425.577 52.2373 425.83 52.76 425.878 53.416H424.542C424.542 53.144 424.435 52.9227 424.222 52.752C424.009 52.576 423.729 52.488 423.382 52.488C422.897 52.488 422.537 52.6533 422.302 52.984C422.067 53.3147 421.95 53.72 421.95 54.2C421.95 54.6853 422.065 55.0907 422.294 55.416C422.523 55.7413 422.881 55.904 423.366 55.904C423.723 55.904 424.011 55.808 424.23 55.616C424.449 55.424 424.561 55.1493 424.566 54.792H425.894C425.905 55.512 425.657 56.088 425.15 56.52C424.643 56.9467 424.03 57.1547 423.31 57.144ZM432.575 54.2C432.575 55.0533 432.319 55.7573 431.807 56.312C431.301 56.8667 430.623 57.144 429.775 57.144C428.927 57.144 428.247 56.8667 427.735 56.312C427.229 55.7573 426.975 55.0533 426.975 54.2C426.975 53.3413 427.229 52.6373 427.735 52.088C428.247 51.5387 428.927 51.264 429.775 51.264C430.623 51.264 431.301 51.5387 431.807 52.088C432.319 52.6373 432.575 53.3413 432.575 54.2ZM431.247 54.2C431.247 53.704 431.117 53.3067 430.855 53.008C430.594 52.7093 430.234 52.56 429.775 52.56C429.317 52.56 428.957 52.7093 428.695 53.008C428.434 53.3067 428.303 53.704 428.303 54.2C428.303 54.7013 428.434 55.1013 428.695 55.4C428.957 55.6987 429.317 55.848 429.775 55.848C430.234 55.848 430.594 55.6987 430.855 55.4C431.117 55.1013 431.247 54.7013 431.247 54.2ZM433.255 57V55.624H434.599V57H433.255Z" fill="#B6B6B6"/>
<line x1="35" y1="305.5" x2="465" y2="305.5" stroke="#27D0E8" stroke-width="3"/>
<rect x="280" y="199" width="127" height="54" fill="#D7F8FD"/>
<path d="M296.56 222.23L296.812 220.06H297.386C297.386 220.797 297.619 221.385 298.086 221.824C298.562 222.253 299.108 222.468 299.724 222.468C300.237 222.468 300.667 222.323 301.012 222.034C301.357 221.735 301.53 221.339 301.53 220.844C301.502 220.34 301.334 219.939 301.026 219.64C300.718 219.341 300.214 219.019 299.514 218.674C298.851 218.338 298.361 218.067 298.044 217.862C297.195 217.311 296.77 216.546 296.77 215.566C296.77 214.735 297.055 214.096 297.624 213.648C298.193 213.191 298.912 212.962 299.78 212.962C300.853 212.962 301.843 213.265 302.748 213.872L302.006 215.776H301.46C301.479 215.571 301.488 215.463 301.488 215.454C301.488 214.941 301.315 214.53 300.97 214.222C300.625 213.905 300.2 213.746 299.696 213.746C299.229 213.746 298.837 213.886 298.52 214.166C298.203 214.446 298.044 214.819 298.044 215.286C298.044 215.622 298.137 215.925 298.324 216.196C298.501 216.429 298.721 216.63 298.982 216.798C299.243 216.966 299.64 217.181 300.172 217.442C300.807 217.75 301.273 218.007 301.572 218.212C302.393 218.725 302.804 219.491 302.804 220.508C302.804 221.376 302.515 222.053 301.936 222.538C301.357 223.014 300.625 223.252 299.738 223.252C298.59 223.252 297.531 222.911 296.56 222.23ZM307.891 221.726L306.561 222.958C306.281 223.089 305.95 223.154 305.567 223.154C305.026 223.154 304.582 222.972 304.237 222.608C303.892 222.244 303.719 221.81 303.719 221.306C303.719 220.858 303.868 220.466 304.167 220.13C304.475 219.794 304.918 219.57 305.497 219.458L307.653 219.01V218.394C307.653 217.311 307.238 216.77 306.407 216.77C305.996 216.77 305.674 216.919 305.441 217.218C305.208 217.507 305.091 217.881 305.091 218.338L305.105 218.604H304.573L303.943 217.19C304.699 216.518 305.576 216.182 306.575 216.182C307.228 216.182 307.756 216.35 308.157 216.686C308.568 217.022 308.773 217.493 308.773 218.1V221.586C308.773 222.109 308.927 222.37 309.235 222.37C309.506 222.37 309.734 222.235 309.921 221.964L310.061 222.37C309.874 222.893 309.51 223.154 308.969 223.154C308.25 223.154 307.891 222.678 307.891 221.726ZM307.653 221.264V219.612L306.127 219.962C305.716 220.046 305.404 220.205 305.189 220.438C304.974 220.662 304.867 220.919 304.867 221.208C304.867 221.488 304.956 221.726 305.133 221.922C305.32 222.109 305.562 222.202 305.861 222.202C306.374 222.202 306.972 221.889 307.653 221.264ZM313.154 223.098L310.62 217.148L309.5 216.77V216.308H312.79V216.826L311.81 216.966L313.686 221.558L315.254 217.148L314.134 216.77V216.308H317.186V216.826L316.066 216.994L313.924 222.888L313.154 223.098ZM322.832 220.858L323.126 221.25C322.855 221.857 322.472 222.328 321.978 222.664C321.483 222.991 320.946 223.154 320.368 223.154C319.537 223.154 318.823 222.841 318.226 222.216C317.628 221.591 317.33 220.765 317.33 219.738C317.33 218.683 317.642 217.829 318.268 217.176C318.902 216.513 319.668 216.182 320.564 216.182C321.348 216.182 321.964 216.443 322.412 216.966C322.869 217.489 323.098 218.221 323.098 219.164C323.098 219.341 323.093 219.463 323.084 219.528H318.408C318.436 220.303 318.674 220.923 319.122 221.39C319.57 221.857 320.106 222.09 320.732 222.09C321.618 222.09 322.318 221.679 322.832 220.858ZM318.45 218.842H321.922C321.922 218.189 321.782 217.694 321.502 217.358C321.222 217.022 320.844 216.854 320.368 216.854C319.882 216.854 319.462 217.041 319.108 217.414C318.762 217.787 318.543 218.263 318.45 218.842ZM334.081 220.382C334.081 221.213 333.801 221.857 333.241 222.314C332.681 222.771 331.943 223 331.029 223H330.805L330.679 224.778H330.105L330.231 222.944C329.353 222.823 328.569 222.519 327.879 222.034L328.117 219.976H328.663C328.663 220.536 328.807 221.007 329.097 221.39C329.395 221.763 329.792 222.02 330.287 222.16L330.539 218.506C330.044 218.263 329.615 218.021 329.251 217.778C328.467 217.265 328.075 216.569 328.075 215.692C328.075 214.927 328.331 214.329 328.845 213.9C329.358 213.461 330.044 213.228 330.903 213.2L331.001 211.786H331.575L331.477 213.214C332.438 213.289 333.287 213.578 334.025 214.082L333.325 215.888H332.793C332.811 215.72 332.821 215.617 332.821 215.58C332.821 215.151 332.69 214.796 332.429 214.516C332.177 214.227 331.841 214.045 331.421 213.97L331.197 217.344L331.435 217.456C331.985 217.727 332.457 217.983 332.849 218.226C333.67 218.721 334.081 219.439 334.081 220.382ZM330.637 217.064L330.847 213.928C330.389 213.956 330.011 214.105 329.713 214.376C329.423 214.637 329.279 214.987 329.279 215.426C329.279 215.771 329.391 216.07 329.615 216.322C329.839 216.574 330.179 216.821 330.637 217.064ZM332.863 220.718C332.863 220.307 332.727 219.967 332.457 219.696C332.186 219.416 331.733 219.113 331.099 218.786L330.847 222.258H331.015C331.556 222.258 331.999 222.123 332.345 221.852C332.69 221.572 332.863 221.194 332.863 220.718ZM337.113 213.34H341.481V214.544H337.701L337.323 216.938C337.855 216.779 338.308 216.7 338.681 216.7C339.615 216.7 340.385 216.98 340.991 217.54C341.607 218.1 341.915 218.865 341.915 219.836C341.915 220.741 341.603 221.521 340.977 222.174C340.361 222.827 339.535 223.154 338.499 223.154C337.463 223.154 336.516 222.851 335.657 222.244L335.979 220.158H336.553V220.368C336.553 221.031 336.74 221.553 337.113 221.936C337.487 222.319 337.953 222.51 338.513 222.51C339.185 222.51 339.727 222.286 340.137 221.838C340.548 221.39 340.753 220.858 340.753 220.242C340.753 219.467 340.511 218.87 340.025 218.45C339.54 218.021 338.882 217.806 338.051 217.806C337.501 217.806 336.931 217.899 336.343 218.086L337.113 213.34ZM344.097 221.81C343.528 220.905 343.243 219.696 343.243 218.184C343.243 216.672 343.528 215.463 344.097 214.558C344.676 213.653 345.479 213.2 346.505 213.2C347.532 213.2 348.33 213.648 348.899 214.544C349.478 215.44 349.767 216.658 349.767 218.198C349.767 219.729 349.478 220.937 348.899 221.824C348.321 222.711 347.523 223.154 346.505 223.154C345.479 223.154 344.676 222.706 344.097 221.81ZM348.409 218.52C348.409 217.139 348.232 216.014 347.877 215.146C347.532 214.278 347.023 213.844 346.351 213.844C345.754 213.844 345.306 214.194 345.007 214.894C344.718 215.585 344.573 216.565 344.573 217.834C344.573 219.262 344.746 220.396 345.091 221.236C345.446 222.095 345.959 222.524 346.631 222.524C347.817 222.524 348.409 221.189 348.409 218.52ZM355.954 217.05V220.956C355.954 221.833 356.318 222.272 357.046 222.272C357.251 222.272 357.568 222.221 357.998 222.118V222.692C357.578 223 357.088 223.154 356.528 223.154C356.005 223.154 355.59 223 355.282 222.692C354.974 222.375 354.82 221.903 354.82 221.278V216.994H353.35V216.49L354.82 216.084V214.712L355.954 214.376V216.308H357.914V217.05H355.954ZM365.093 219.654C365.093 220.653 364.78 221.488 364.155 222.16C363.539 222.823 362.746 223.154 361.775 223.154C360.814 223.154 360.034 222.823 359.437 222.16C358.849 221.497 358.555 220.676 358.555 219.696C358.555 218.697 358.863 217.862 359.479 217.19C360.104 216.518 360.902 216.182 361.873 216.182C362.825 216.182 363.6 216.518 364.197 217.19C364.794 217.853 365.093 218.674 365.093 219.654ZM363.749 219.85C363.749 219.01 363.562 218.301 363.189 217.722C362.825 217.134 362.335 216.84 361.719 216.84C361.159 216.84 360.716 217.087 360.389 217.582C360.062 218.077 359.899 218.721 359.899 219.514C359.899 220.354 360.081 221.068 360.445 221.656C360.818 222.235 361.308 222.524 361.915 222.524C362.475 222.524 362.918 222.277 363.245 221.782C363.581 221.287 363.749 220.643 363.749 219.85ZM369.42 216.182C369.812 216.182 370.218 216.238 370.638 216.35V214.432L369.574 213.928V213.634L371.786 213.046V221.922L372.85 222.09V222.58L370.764 223.154V221.88L369.196 223.084C368.935 223.131 368.73 223.154 368.58 223.154C367.852 223.154 367.227 222.874 366.704 222.314C366.191 221.745 365.934 220.975 365.934 220.004C365.934 218.921 366.256 218.016 366.9 217.288C367.554 216.551 368.394 216.182 369.42 216.182ZM370.638 221.152V217.554C370.228 217.143 369.71 216.938 369.084 216.938C368.44 216.938 367.932 217.199 367.558 217.722C367.185 218.235 366.998 218.842 366.998 219.542C366.998 220.214 367.171 220.797 367.516 221.292C367.862 221.777 368.314 222.02 368.874 222.02C369.201 222.02 369.528 221.941 369.854 221.782C370.181 221.614 370.442 221.404 370.638 221.152ZM377.65 221.726L376.32 222.958C376.04 223.089 375.709 223.154 375.326 223.154C374.785 223.154 374.341 222.972 373.996 222.608C373.651 222.244 373.478 221.81 373.478 221.306C373.478 220.858 373.627 220.466 373.926 220.13C374.234 219.794 374.677 219.57 375.256 219.458L377.412 219.01V218.394C377.412 217.311 376.997 216.77 376.166 216.77C375.755 216.77 375.433 216.919 375.2 217.218C374.967 217.507 374.85 217.881 374.85 218.338L374.864 218.604H374.332L373.702 217.19C374.458 216.518 375.335 216.182 376.334 216.182C376.987 216.182 377.515 216.35 377.916 216.686C378.327 217.022 378.532 217.493 378.532 218.1V221.586C378.532 222.109 378.686 222.37 378.994 222.37C379.265 222.37 379.493 222.235 379.68 221.964L379.82 222.37C379.633 222.893 379.269 223.154 378.728 223.154C378.009 223.154 377.65 222.678 377.65 221.726ZM377.412 221.264V219.612L375.886 219.962C375.475 220.046 375.163 220.205 374.948 220.438C374.733 220.662 374.626 220.919 374.626 221.208C374.626 221.488 374.715 221.726 374.892 221.922C375.079 222.109 375.321 222.202 375.62 222.202C376.133 222.202 376.731 221.889 377.412 221.264ZM382.65 226.038L381.39 225.548L383.154 223.07L380.732 217.148L379.612 216.77V216.308H382.986V216.826L382.006 216.966L383.644 221.572L385.324 217.148L384.204 216.77V216.308H387.326V216.826L386.206 216.994L382.65 226.038ZM389.136 220.228H388.534L388.058 213.2H389.598L389.136 220.228ZM388.03 222.244C388.03 221.992 388.104 221.791 388.254 221.642C388.403 221.493 388.594 221.418 388.828 221.418C389.08 221.418 389.28 221.493 389.43 221.642C389.579 221.791 389.654 221.992 389.654 222.244C389.654 222.487 389.579 222.687 389.43 222.846C389.28 222.995 389.08 223.07 388.828 223.07C388.594 223.07 388.403 222.995 388.254 222.846C388.104 222.687 388.03 222.487 388.03 222.244Z" fill="#000310"/>
<path d="M301.346 235.732H302.354C302.318 236.458 302.042 237.046 301.526 237.496C301.01 237.94 300.365 238.162 299.591 238.162C298.667 238.162 297.923 237.853 297.359 237.235C296.801 236.617 296.522 235.813 296.522 234.823C296.522 233.845 296.804 233.056 297.368 232.456C297.938 231.856 298.691 231.556 299.627 231.556C300.383 231.556 301.004 231.757 301.49 232.159C301.976 232.555 302.255 233.086 302.327 233.752H301.31C301.262 233.374 301.079 233.068 300.761 232.834C300.443 232.6 300.053 232.483 299.591 232.483C298.973 232.483 298.475 232.696 298.097 233.122C297.719 233.548 297.53 234.109 297.53 234.805C297.53 235.507 297.719 236.083 298.097 236.533C298.475 236.977 298.973 237.199 299.591 237.199C300.071 237.199 300.473 237.067 300.797 236.803C301.121 236.539 301.304 236.182 301.346 235.732ZM307.671 235.714C307.671 236.44 307.47 237.019 307.068 237.451C306.666 237.883 306.117 238.099 305.421 238.099C304.725 238.099 304.176 237.883 303.774 237.451C303.372 237.019 303.171 236.44 303.171 235.714C303.171 234.994 303.375 234.415 303.783 233.977C304.191 233.539 304.737 233.32 305.421 233.32C306.105 233.32 306.651 233.539 307.059 233.977C307.467 234.415 307.671 234.994 307.671 235.714ZM304.458 234.598C304.236 234.868 304.125 235.24 304.125 235.714C304.125 236.188 304.239 236.56 304.467 236.83C304.701 237.1 305.025 237.235 305.439 237.235C305.847 237.235 306.162 237.1 306.384 236.83C306.606 236.56 306.717 236.188 306.717 235.714C306.717 235.24 306.6 234.868 306.366 234.598C306.138 234.322 305.82 234.184 305.412 234.184C305.004 234.184 304.686 234.322 304.458 234.598ZM311.979 231.601H312.933V238H312.006V237.235C311.664 237.811 311.139 238.099 310.431 238.099C309.837 238.099 309.357 237.88 308.991 237.442C308.625 236.998 308.442 236.416 308.442 235.696C308.442 234.994 308.637 234.424 309.027 233.986C309.417 233.542 309.912 233.32 310.512 233.32C311.196 233.32 311.685 233.572 311.979 234.076V231.601ZM312.015 235.696C312.015 235.234 311.895 234.859 311.655 234.571C311.415 234.283 311.097 234.139 310.701 234.139C310.305 234.139 309.987 234.283 309.747 234.571C309.513 234.853 309.396 235.225 309.396 235.687C309.396 236.155 309.513 236.533 309.747 236.821C309.987 237.109 310.305 237.253 310.701 237.253C311.097 237.253 311.415 237.112 311.655 236.83C311.895 236.542 312.015 236.164 312.015 235.696ZM318.26 235.579V235.975H314.912C314.912 236.389 315.032 236.716 315.272 236.956C315.512 237.19 315.839 237.307 316.253 237.307C316.823 237.307 317.198 237.088 317.378 236.65H318.215C318.101 237.088 317.861 237.439 317.495 237.703C317.135 237.967 316.697 238.099 316.181 238.099C315.527 238.099 315.002 237.886 314.606 237.46C314.216 237.028 314.021 236.455 314.021 235.741C314.021 235.015 314.222 234.43 314.624 233.986C315.032 233.542 315.563 233.32 316.217 233.32C316.835 233.32 317.33 233.527 317.702 233.941C318.074 234.349 318.26 234.895 318.26 235.579ZM317.045 234.427C316.841 234.217 316.559 234.112 316.199 234.112C315.839 234.112 315.542 234.217 315.308 234.427C315.08 234.637 314.951 234.922 314.921 235.282H317.351C317.351 234.922 317.249 234.637 317.045 234.427ZM319.083 238V236.875H320.172V238H319.083ZM319.083 234.562V233.437H320.172V234.562H319.083ZM328.224 237.568L329.151 239.134H328.116L327.432 237.991C327.084 238.105 326.718 238.162 326.334 238.162C325.428 238.174 324.678 237.871 324.084 237.253C323.49 236.629 323.199 235.831 323.211 234.859C323.211 233.881 323.502 233.086 324.084 232.474C324.672 231.856 325.422 231.547 326.334 231.547C327.234 231.535 327.981 231.841 328.575 232.465C329.169 233.089 329.46 233.887 329.448 234.859C329.448 235.441 329.34 235.966 329.124 236.434C328.914 236.896 328.614 237.274 328.224 237.568ZM326.919 237.145L325.821 235.309H326.874L327.72 236.731C328.194 236.311 328.431 235.687 328.431 234.859C328.431 234.121 328.242 233.545 327.864 233.131C327.492 232.711 326.982 232.501 326.334 232.501C325.686 232.501 325.173 232.711 324.795 233.131C324.423 233.545 324.237 234.121 324.237 234.859C324.237 235.597 324.423 236.173 324.795 236.587C325.173 237.001 325.686 237.208 326.334 237.208C326.532 237.208 326.727 237.187 326.919 237.145ZM334.691 231.7H335.672V235.624C335.672 236.434 335.453 237.061 335.015 237.505C334.583 237.943 333.965 238.162 333.161 238.162C332.357 238.162 331.733 237.943 331.289 237.505C330.845 237.061 330.623 236.434 330.623 235.624V231.7H331.622V235.642C331.622 236.158 331.757 236.551 332.027 236.821C332.303 237.085 332.693 237.217 333.197 237.217C333.683 237.217 334.052 237.094 334.304 236.848C334.562 236.602 334.691 236.239 334.691 235.759V231.7ZM341.486 238L340.919 236.479H338.075L337.508 238H336.446L338.903 231.7H340.118L342.575 238H341.486ZM338.426 235.552H340.568L339.497 232.672L338.426 235.552ZM347.706 237.064V238H343.62V231.7H344.619V237.064H347.706ZM349.794 231.7V238H348.795V231.7H349.794ZM355.983 231.7V232.627H353.85V238H352.851V232.627H350.745V231.7H355.983ZM360.728 231.7H361.844L359.576 235.606V238H358.577V235.606L356.309 231.7H357.452L359.09 234.715L360.728 231.7ZM368.956 235.939C368.956 236.569 368.746 237.088 368.326 237.496C367.912 237.898 367.381 238.099 366.733 238.099C366.109 238.099 365.596 237.904 365.194 237.514C364.798 237.124 364.585 236.62 364.555 236.002H365.518C365.56 236.392 365.689 236.692 365.905 236.902C366.127 237.112 366.412 237.217 366.76 237.217C367.15 237.217 367.45 237.109 367.66 236.893C367.876 236.671 367.984 236.362 367.984 235.966C367.984 235.588 367.876 235.291 367.66 235.075C367.45 234.853 367.168 234.742 366.814 234.742C366.412 234.742 366.076 234.868 365.806 235.12H364.789L365.32 231.808H368.641V232.672H366.04L365.761 234.418C366.055 234.076 366.478 233.905 367.03 233.905C367.594 233.905 368.056 234.097 368.416 234.481C368.776 234.859 368.956 235.345 368.956 235.939ZM374.048 234.895C374.048 237.031 373.325 238.099 371.879 238.099C370.433 238.099 369.71 237.031 369.71 234.895C369.71 232.765 370.433 231.7 371.879 231.7C373.325 231.7 374.048 232.765 374.048 234.895ZM373.076 234.895C373.076 233.359 372.677 232.591 371.879 232.591C371.081 232.591 370.682 233.359 370.682 234.895C370.682 236.437 371.081 237.208 371.879 237.208C372.677 237.208 373.076 236.437 373.076 234.895Z" fill="#000310"/>
<defs>
<filter id="filter0_d_453_2437" x="0.103123" y="0.643487" width="499.794" height="355.586" filterUnits="userSpaceOnUse" color-interpolation-filters="sRGB">
<feFlood flood-opacity="0" result="BackgroundImageFix"/>
<feColorMatrix in="SourceAlpha" type="matrix" values="0 0 0 0 0 0 0 0 0 0 0 0 0 0 0 0 0 0 127 0" result="hardAlpha"/>
<feOffset dy="14.5404"/>
<feGaussianBlur stdDeviation="17.4484"/>
<feComposite in2="hardAlpha" operator="out"/>
<feColorMatrix type="matrix" values="0 0 0 0 0 0 0 0 0 0 0 0 0 0 0 0 0 0 0.1 0"/>
<feBlend mode="normal" in2="BackgroundImageFix" result="effect1_dropShadow_453_2437"/>
<feBlend mode="normal" in="SourceGraphic" in2="effect1_dropShadow_453_2437" result="shape"/>
</filter>
</defs>
</svg>
