<svg width="500" height="357" viewBox="0 0 500 357" fill="none" xmlns="http://www.w3.org/2000/svg">
<g filter="url(#filter0_d_453_2269)">
<rect x="35" y="21" width="430" height="285.793" fill="white"/>
</g>
<rect x="223" y="127" width="182" height="10" rx="5" fill="#D6D5E6"/>
<rect x="223" y="143" width="165" height="10" rx="5" fill="#D6D5E6"/>
<rect x="292" y="211" width="92" height="11" rx="5.5" fill="#E8E7F1"/>
<rect x="292" y="227" width="87" height="10" rx="5" fill="#E8E7F1"/>
<rect x="292" y="242" width="48" height="10" rx="5" fill="#E8E7F1"/>
<rect x="223" y="95" width="98" height="16" rx="8" fill="#D6D5E6"/>
<rect x="211" y="191" width="66" height="66" fill="#D9FAD9"/>
<path d="M465 343.074H368V307H465V343.074Z" fill="#41C23E"/>
<path d="M388.788 321.34L382.465 327.664L379.303 324.502" stroke="white" stroke-width="2.52947"/>
<path d="M405.602 320.78V321.936H402.942V328.636H401.696V321.936H399.07V320.78H405.602ZM409.163 322.856V324.001H408.939C407.817 324.001 407.255 324.596 407.255 325.785V328.636H406.066V322.912H407.244V323.821C407.536 323.178 408.067 322.856 408.838 322.856H409.163ZM414.629 324.652V328.636H413.496V327.772C413.077 328.43 412.452 328.759 411.622 328.759C411.045 328.759 410.589 328.606 410.252 328.299C409.923 327.985 409.759 327.566 409.759 327.042C409.759 326.466 409.931 326.062 410.275 325.83C410.634 325.583 411.057 325.422 411.543 325.348L412.766 325.157C412.991 325.127 413.167 325.063 413.294 324.966C413.421 324.861 413.485 324.697 413.485 324.472C413.485 323.993 413.133 323.754 412.43 323.754C411.629 323.754 411.165 324.076 411.038 324.719H409.916C409.983 324.128 410.245 323.66 410.701 323.316C411.158 322.972 411.752 322.8 412.486 322.8C413.174 322.8 413.702 322.957 414.068 323.271C414.442 323.578 414.629 324.038 414.629 324.652ZM413.451 326.212V325.797C413.241 325.864 412.976 325.924 412.654 325.976L412.003 326.077C411.719 326.122 411.468 326.204 411.251 326.324C411.034 326.451 410.926 326.672 410.926 326.986C410.926 327.233 411.008 327.424 411.173 327.559C411.345 327.693 411.584 327.761 411.891 327.761C412.347 327.761 412.721 327.618 413.013 327.334C413.305 327.05 413.451 326.676 413.451 326.212ZM418.687 328.759C417.842 328.759 417.168 328.494 416.667 327.963C416.173 327.424 415.926 326.709 415.926 325.819C415.926 324.921 416.185 324.195 416.701 323.642C417.217 323.081 417.894 322.8 418.732 322.8C419.45 322.8 420.038 323.002 420.494 323.406C420.951 323.81 421.186 324.334 421.201 324.977H420.045C420.015 324.633 419.884 324.364 419.652 324.169C419.428 323.967 419.118 323.866 418.721 323.866C418.22 323.866 417.827 324.038 417.543 324.382C417.258 324.719 417.116 325.183 417.116 325.774C417.116 326.365 417.254 326.833 417.531 327.177C417.816 327.514 418.208 327.682 418.71 327.682C419.091 327.682 419.402 327.581 419.641 327.379C419.888 327.169 420.03 326.889 420.068 326.537H421.235C421.168 327.226 420.906 327.768 420.449 328.165C419.993 328.561 419.406 328.759 418.687 328.759ZM427.872 328.636H426.457L424.651 326.223L423.786 327.143V328.636H422.597V320.656H423.786V325.617L426.166 322.912H427.737L425.436 325.381L427.872 328.636ZM433.265 324.652V328.636H432.131V327.772C431.712 328.43 431.087 328.759 430.257 328.759C429.681 328.759 429.224 328.606 428.888 328.299C428.558 327.985 428.394 327.566 428.394 327.042C428.394 326.466 428.566 326.062 428.91 325.83C429.269 325.583 429.692 325.422 430.178 325.348L431.402 325.157C431.626 325.127 431.802 325.063 431.929 324.966C432.056 324.861 432.12 324.697 432.12 324.472C432.12 323.993 431.768 323.754 431.065 323.754C430.264 323.754 429.8 324.076 429.673 324.719H428.551C428.618 324.128 428.88 323.66 429.336 323.316C429.793 322.972 430.388 322.8 431.121 322.8C431.809 322.8 432.337 322.957 432.703 323.271C433.078 323.578 433.265 324.038 433.265 324.652ZM432.086 326.212V325.797C431.877 325.864 431.611 325.924 431.289 325.976L430.638 326.077C430.354 326.122 430.103 326.204 429.886 326.324C429.669 326.451 429.561 326.672 429.561 326.986C429.561 327.233 429.643 327.424 429.808 327.559C429.98 327.693 430.219 327.761 430.526 327.761C430.983 327.761 431.357 327.618 431.648 327.334C431.94 327.05 432.086 326.676 432.086 326.212ZM440.555 325.763C440.555 326.668 440.323 327.394 439.859 327.94C439.403 328.486 438.793 328.759 438.03 328.759C437.573 328.759 437.18 328.666 436.851 328.479C436.522 328.292 436.275 328.034 436.11 327.704V328.636H434.954V320.656H436.144V323.9C436.309 323.548 436.559 323.279 436.896 323.092C437.24 322.897 437.637 322.8 438.086 322.8C438.834 322.8 439.432 323.073 439.881 323.619C440.33 324.158 440.555 324.872 440.555 325.763ZM438.916 327.222C439.216 326.863 439.365 326.391 439.365 325.808C439.365 325.224 439.216 324.757 438.916 324.405C438.624 324.046 438.235 323.866 437.749 323.866C437.263 323.866 436.866 324.046 436.559 324.405C436.253 324.764 436.099 325.232 436.099 325.808C436.099 326.384 436.253 326.852 436.559 327.211C436.866 327.57 437.263 327.749 437.749 327.749C438.235 327.749 438.624 327.574 438.916 327.222ZM443.101 320.656V328.636H441.911V320.656H443.101ZM449.75 325.617V326.111H445.575C445.575 326.627 445.725 327.035 446.024 327.334C446.324 327.626 446.731 327.772 447.248 327.772C447.958 327.772 448.426 327.499 448.651 326.953H449.694C449.552 327.499 449.253 327.936 448.796 328.266C448.348 328.595 447.801 328.759 447.158 328.759C446.342 328.759 445.688 328.494 445.194 327.963C444.707 327.424 444.464 326.709 444.464 325.819C444.464 324.914 444.715 324.184 445.216 323.63C445.725 323.077 446.387 322.8 447.203 322.8C447.973 322.8 448.591 323.058 449.055 323.574C449.518 324.083 449.75 324.764 449.75 325.617ZM448.235 324.18C447.981 323.919 447.629 323.788 447.18 323.788C446.731 323.788 446.361 323.919 446.069 324.18C445.785 324.442 445.624 324.798 445.587 325.247H448.617C448.617 324.798 448.49 324.442 448.235 324.18Z" fill="white"/>
<path d="M233.1 204.578L225.5 204.578L225.5 212.178" stroke="#000310" stroke-width="2.17146"/>
<path d="M255.9 243.422L263.5 243.422L263.5 235.822" stroke="#000310" stroke-width="2.17146"/>
<path d="M263.5 212.178L263.5 204.578L255.9 204.578" stroke="#000310" stroke-width="2.17146"/>
<path d="M225.5 235.823L225.5 243.422L233.1 243.422" stroke="#000310" stroke-width="2.17146"/>
<rect x="241.775" y="211.575" width="9.27662" height="9.27662" transform="rotate(90 241.775 211.575)" stroke="#000310" stroke-width="2.17146"/>
<rect x="257.071" y="211.575" width="9.27365" height="9.27365" transform="rotate(90 257.071 211.575)" stroke="#000310" stroke-width="2.17146"/>
<rect x="241.773" y="226.873" width="9.27365" height="9.27365" transform="rotate(90 241.773 226.873)" stroke="#000310" stroke-width="2.17146"/>
<rect x="258.158" y="233.279" width="3.81443" height="3.81443" transform="rotate(90 258.158 233.279)" fill="#000310"/>
<rect x="250.53" y="225.65" width="3.81443" height="3.81443" transform="rotate(90 250.53 225.65)" fill="#000310"/>
<rect x="250.53" y="233.279" width="3.81443" height="3.81443" transform="rotate(90 250.53 233.279)" fill="#000310"/>
<rect x="254.344" y="229.465" width="3.81443" height="3.81443" transform="rotate(90 254.344 229.465)" fill="#000310"/>
<rect x="258.159" y="229.465" width="3.81443" height="3.81443" transform="rotate(90 258.159 229.465)" fill="#000310"/>
<rect x="43.9922" y="29.8965" width="128.498" height="268" fill="#F6F5FA"/>
<line x1="89.5073" y1="116.737" x2="172.252" y2="116.737" stroke="#E8E7F1" stroke-width="1.47794"/>
<line x1="89.5073" y1="122.836" x2="172.252" y2="122.836" stroke="#E8E7F1" stroke-width="1.47794"/>
<line x1="89.5073" y1="128.936" x2="172.252" y2="128.936" stroke="#E8E7F1" stroke-width="1.47794"/>
<line x1="89.5073" y1="135.035" x2="172.252" y2="135.035" stroke="#E8E7F1" stroke-width="1.47794"/>
<line x1="89.5073" y1="141.135" x2="172.252" y2="141.135" stroke="#E8E7F1" stroke-width="1.47794"/>
<line x1="89.5073" y1="147.234" x2="172.252" y2="147.234" stroke="#E8E7F1" stroke-width="1.47794"/>
<line x1="89.5073" y1="159.433" x2="172.252" y2="159.433" stroke="#E8E7F1" stroke-width="1.47794"/>
<line x1="89.5073" y1="165.532" x2="172.252" y2="165.532" stroke="#E8E7F1" stroke-width="1.47794"/>
<line x1="89.5073" y1="171.632" x2="172.252" y2="171.632" stroke="#E8E7F1" stroke-width="1.47794"/>
<line x1="89.5073" y1="177.731" x2="172.252" y2="177.731" stroke="#E8E7F1" stroke-width="1.47794"/>
<line x1="89.5073" y1="214.327" x2="172.252" y2="214.327" stroke="#E8E7F1" stroke-width="1.47794"/>
<line x1="89.5073" y1="189.93" x2="172.252" y2="189.93" stroke="#E8E7F1" stroke-width="1.47794"/>
<line x1="89.5073" y1="226.526" x2="172.252" y2="226.526" stroke="#E8E7F1" stroke-width="1.47794"/>
<line x1="89.5073" y1="202.129" x2="172.252" y2="202.129" stroke="#E8E7F1" stroke-width="1.47794"/>
<line x1="89.5073" y1="238.725" x2="172.252" y2="238.725" stroke="#E8E7F1" stroke-width="1.47794"/>
<line x1="89.5073" y1="153.333" x2="172.252" y2="153.333" stroke="#E8E7F1" stroke-width="1.47794"/>
<line x1="89.5073" y1="183.83" x2="172.252" y2="183.83" stroke="#E8E7F1" stroke-width="1.47794"/>
<line x1="89.5073" y1="220.427" x2="172.252" y2="220.427" stroke="#E8E7F1" stroke-width="1.47794"/>
<line x1="89.5073" y1="196.029" x2="172.252" y2="196.029" stroke="#E8E7F1" stroke-width="1.47794"/>
<line x1="89.5073" y1="232.626" x2="172.252" y2="232.626" stroke="#E8E7F1" stroke-width="1.47794"/>
<line x1="89.5073" y1="208.228" x2="172.252" y2="208.228" stroke="#E8E7F1" stroke-width="1.47794"/>
<line x1="89.5073" y1="244.825" x2="172.252" y2="244.825" stroke="#E8E7F1" stroke-width="1.47794"/>
<line x1="89.5073" y1="250.87" x2="172.252" y2="250.87" stroke="#E8E7F1" stroke-width="1.47794"/>
<rect width="45.7529" height="85.665" transform="matrix(1 0 0 -1 43.7544 116.298)" fill="#E8E7F1"/>
<rect x="44.1333" y="251.661" width="9.17793" height="9.17793" fill="#E8E7F1"/>
<rect x="62.489" y="251.661" width="9.17793" height="9.17793" fill="#E8E7F1"/>
<rect x="80.7462" y="251.661" width="9.17793" height="9.17793" fill="#E8E7F1"/>
<rect x="53.3104" y="260.839" width="9.17793" height="9.17793" fill="#E8E7F1"/>
<rect x="71.5956" y="260.839" width="9.17793" height="9.17793" fill="#E8E7F1"/>
<rect x="53.3104" y="279.197" width="9.17793" height="9.17793" fill="#E8E7F1"/>
<rect x="71.5956" y="279.197" width="9.17793" height="9.17793" fill="#E8E7F1"/>
<rect x="44.1333" y="270.016" width="9.17793" height="9.17793" fill="#E8E7F1"/>
<rect x="44.1333" y="288.375" width="9.17793" height="9.17793" fill="#E8E7F1"/>
<rect x="62.489" y="270.016" width="9.17793" height="9.17793" fill="#E8E7F1"/>
<rect x="80.7462" y="270.016" width="9.17793" height="9.17793" fill="#E8E7F1"/>
<rect x="62.489" y="288.375" width="9.17793" height="9.17793" fill="#E8E7F1"/>
<rect x="80.7462" y="288.375" width="9.17793" height="9.17793" fill="#E8E7F1"/>
<rect x="395" y="37" width="52" height="32" fill="#F3F2F8"/>
<line x1="412.445" y1="48.0919" x2="407.607" y2="58.7087" stroke="#B6B6B6" stroke-width="1.33333"/>
<line x1="417.175" y1="48.0916" x2="412.337" y2="58.7084" stroke="#B6B6B6" stroke-width="1.33333"/>
<path d="M423.31 57.144C422.75 57.1547 422.259 57.0187 421.838 56.736C421.422 56.4533 421.115 56.0933 420.918 55.656C420.721 55.2133 420.625 54.736 420.63 54.224C420.625 53.7013 420.726 53.2187 420.934 52.776C421.142 52.328 421.459 51.9627 421.886 51.68C422.318 51.3973 422.819 51.2587 423.39 51.264C424.083 51.264 424.659 51.4587 425.118 51.848C425.577 52.2373 425.83 52.76 425.878 53.416H424.542C424.542 53.144 424.435 52.9227 424.222 52.752C424.009 52.576 423.729 52.488 423.382 52.488C422.897 52.488 422.537 52.6533 422.302 52.984C422.067 53.3147 421.95 53.72 421.95 54.2C421.95 54.6853 422.065 55.0907 422.294 55.416C422.523 55.7413 422.881 55.904 423.366 55.904C423.723 55.904 424.011 55.808 424.23 55.616C424.449 55.424 424.561 55.1493 424.566 54.792H425.894C425.905 55.512 425.657 56.088 425.15 56.52C424.643 56.9467 424.03 57.1547 423.31 57.144ZM432.575 54.2C432.575 55.0533 432.319 55.7573 431.807 56.312C431.301 56.8667 430.623 57.144 429.775 57.144C428.927 57.144 428.247 56.8667 427.735 56.312C427.229 55.7573 426.975 55.0533 426.975 54.2C426.975 53.3413 427.229 52.6373 427.735 52.088C428.247 51.5387 428.927 51.264 429.775 51.264C430.623 51.264 431.301 51.5387 431.807 52.088C432.319 52.6373 432.575 53.3413 432.575 54.2ZM431.247 54.2C431.247 53.704 431.117 53.3067 430.855 53.008C430.594 52.7093 430.234 52.56 429.775 52.56C429.317 52.56 428.957 52.7093 428.695 53.008C428.434 53.3067 428.303 53.704 428.303 54.2C428.303 54.7013 428.434 55.1013 428.695 55.4C428.957 55.6987 429.317 55.848 429.775 55.848C430.234 55.848 430.594 55.6987 430.855 55.4C431.117 55.1013 431.247 54.7013 431.247 54.2ZM433.255 57V55.624H434.599V57H433.255Z" fill="#B6B6B6"/>
<line x1="35" y1="305.5" x2="465" y2="305.5" stroke="#41C23E" stroke-width="3"/>
<defs>
<filter id="filter0_d_453_2269" x="0.103123" y="0.643487" width="499.794" height="355.586" filterUnits="userSpaceOnUse" color-interpolation-filters="sRGB">
<feFlood flood-opacity="0" result="BackgroundImageFix"/>
<feColorMatrix in="SourceAlpha" type="matrix" values="0 0 0 0 0 0 0 0 0 0 0 0 0 0 0 0 0 0 127 0" result="hardAlpha"/>
<feOffset dy="14.5404"/>
<feGaussianBlur stdDeviation="17.4484"/>
<feComposite in2="hardAlpha" operator="out"/>
<feColorMatrix type="matrix" values="0 0 0 0 0 0 0 0 0 0 0 0 0 0 0 0 0 0 0.1 0"/>
<feBlend mode="normal" in2="BackgroundImageFix" result="effect1_dropShadow_453_2269"/>
<feBlend mode="normal" in="SourceGraphic" in2="effect1_dropShadow_453_2269" result="shape"/>
</filter>
</defs>
</svg>
