<svg width="526" height="391" viewBox="0 0 526 391" fill="none" xmlns="http://www.w3.org/2000/svg">
<g filter="url(#filter0_d_453_2351)">
<rect x="48" y="37" width="430" height="286" fill="white"/>
</g>
<path d="M478 35.5325H326V0H478V35.5325Z" fill="#F5C725"/>
<path d="M346.788 14.3401L340.465 20.6638L337.303 17.5019" stroke="white" stroke-width="2.52947"/>
<path d="M363.602 13.7798V14.9358H360.942V21.636H359.696V14.9358H357.07V13.7798H363.602ZM368.544 17.6518V21.636H367.41V20.7718C366.991 21.4302 366.367 21.7594 365.536 21.7594C364.96 21.7594 364.504 21.6061 364.167 21.2993C363.838 20.985 363.673 20.566 363.673 20.0423C363.673 19.4662 363.845 19.0621 364.189 18.8302C364.548 18.5833 364.971 18.4224 365.458 18.3476L366.681 18.1568C366.905 18.1269 367.081 18.0633 367.208 17.966C367.336 17.8613 367.399 17.6967 367.399 17.4722C367.399 16.9933 367.047 16.7539 366.344 16.7539C365.544 16.7539 365.08 17.0756 364.952 17.7191H363.83C363.898 17.128 364.159 16.6604 364.616 16.3162C365.072 15.972 365.667 15.8 366.4 15.8C367.089 15.8 367.616 15.9571 367.983 16.2713C368.357 16.5781 368.544 17.0382 368.544 17.6518ZM367.365 19.2118V18.7965C367.156 18.8639 366.89 18.9237 366.569 18.9761L365.918 19.0771C365.633 19.122 365.383 19.2043 365.166 19.324C364.949 19.4512 364.84 19.6719 364.84 19.9862C364.84 20.2331 364.923 20.4239 365.087 20.5586C365.259 20.6932 365.499 20.7606 365.805 20.7606C366.262 20.7606 366.636 20.6184 366.928 20.3341C367.22 20.0498 367.365 19.6757 367.365 19.2118ZM373.331 15.8561V17.0008H373.107C371.985 17.0008 371.423 17.5957 371.423 18.7853V21.636H370.234V15.9122H371.412V16.8213C371.704 16.1778 372.235 15.8561 373.006 15.8561H373.331ZM378.292 15.9122H379.415V21.2881C379.415 22.1111 379.175 22.7546 378.696 23.2184C378.225 23.6823 377.559 23.9143 376.699 23.9143C375.935 23.9143 375.311 23.731 374.824 23.3644C374.345 23.0052 374.065 22.5077 373.983 21.8717H375.15C375.21 22.2158 375.374 22.4815 375.644 22.6685C375.913 22.863 376.265 22.9603 376.699 22.9603C377.215 22.9603 377.608 22.8294 377.877 22.5675C378.154 22.3131 378.292 21.939 378.292 21.4452V20.4127C378.135 20.7269 377.892 20.9701 377.563 21.1422C377.234 21.3068 376.856 21.3891 376.429 21.3891C375.659 21.3891 375.049 21.1384 374.6 20.6371C374.151 20.1358 373.926 19.455 373.926 18.5945C373.926 17.749 374.151 17.0719 374.6 16.5631C375.049 16.0543 375.659 15.8 376.429 15.8C376.863 15.8 377.245 15.886 377.574 16.0581C377.903 16.2227 378.143 16.4621 378.292 16.7764V15.9122ZM378.236 18.5833C378.236 18.0371 378.098 17.6069 377.821 17.2926C377.544 16.9709 377.166 16.81 376.687 16.81C376.208 16.81 375.827 16.9709 375.543 17.2926C375.258 17.6144 375.116 18.0446 375.116 18.5833C375.116 19.1295 375.255 19.5672 375.531 19.8964C375.816 20.2181 376.201 20.379 376.687 20.379C377.166 20.379 377.544 20.2181 377.821 19.8964C378.098 19.5747 378.236 19.137 378.236 18.5833ZM386.005 18.617V19.1108H381.83C381.83 19.627 381.98 20.0348 382.279 20.3341C382.578 20.6259 382.986 20.7718 383.502 20.7718C384.213 20.7718 384.681 20.4987 384.905 19.9525H385.949C385.807 20.4987 385.508 20.9364 385.051 21.2656C384.602 21.5948 384.056 21.7594 383.413 21.7594C382.597 21.7594 381.942 21.4938 381.449 20.9626C380.962 20.4239 380.719 19.7093 380.719 18.819C380.719 17.9136 380.97 17.1841 381.471 16.6305C381.98 16.0768 382.642 15.8 383.458 15.8C384.228 15.8 384.845 16.0581 385.309 16.5743C385.773 17.0831 386.005 17.764 386.005 18.617ZM384.49 17.1804C384.236 16.9185 383.884 16.7876 383.435 16.7876C382.986 16.7876 382.616 16.9185 382.324 17.1804C382.04 17.4423 381.879 17.7977 381.841 18.2466H384.872C384.872 17.7977 384.744 17.4423 384.49 17.1804ZM390.229 20.6147V21.636H389.433C388.804 21.636 388.363 21.505 388.108 21.2432C387.854 20.9738 387.727 20.5062 387.727 19.8403V16.9447H386.638V15.9122H387.727V14.5317L388.916 14.2175V15.9122H390.095V16.9447H388.916V19.8852C388.916 20.3715 389.163 20.6147 389.657 20.6147H390.229ZM396.368 18.617V19.1108H392.193C392.193 19.627 392.343 20.0348 392.642 20.3341C392.941 20.6259 393.349 20.7718 393.865 20.7718C394.576 20.7718 395.044 20.4987 395.268 19.9525H396.312C396.17 20.4987 395.871 20.9364 395.414 21.2656C394.965 21.5948 394.419 21.7594 393.776 21.7594C392.96 21.7594 392.305 21.4938 391.812 20.9626C391.325 20.4239 391.082 19.7093 391.082 18.819C391.082 17.9136 391.333 17.1841 391.834 16.6305C392.343 16.0768 393.005 15.8 393.821 15.8C394.591 15.8 395.208 16.0581 395.672 16.5743C396.136 17.0831 396.368 17.764 396.368 18.617ZM394.853 17.1804C394.599 16.9185 394.247 16.7876 393.798 16.7876C393.349 16.7876 392.979 16.9185 392.687 17.1804C392.403 17.4423 392.242 17.7977 392.204 18.2466H395.235C395.235 17.7977 395.107 17.4423 394.853 17.1804ZM401.748 13.6563H402.938V21.636H401.782V20.682C401.356 21.4003 400.701 21.7594 399.818 21.7594C399.077 21.7594 398.479 21.4863 398.022 20.9402C397.566 20.3865 397.338 19.6607 397.338 18.7629C397.338 17.8875 397.581 17.1767 398.067 16.6305C398.553 16.0768 399.171 15.8 399.919 15.8C400.772 15.8 401.382 16.1142 401.748 16.7427V13.6563ZM401.793 18.7629C401.793 18.1867 401.644 17.7191 401.344 17.36C401.045 17.0008 400.648 16.8213 400.155 16.8213C399.661 16.8213 399.264 17.0008 398.965 17.36C398.673 17.7116 398.527 18.1755 398.527 18.7516C398.527 19.3352 398.673 19.8066 398.965 20.1658C399.264 20.5249 399.661 20.7045 400.155 20.7045C400.648 20.7045 401.045 20.5286 401.344 20.177C401.644 19.8178 401.793 19.3465 401.793 18.7629ZM412.096 17.6181V18.6506H410.322V20.5361H409.267V18.6506H407.472V17.6181H409.267V15.7102H410.322V17.6181H412.096ZM421.834 20.4688V21.636H416.738V13.7798H417.984V20.4688H421.834ZM428.243 18.7853C428.243 19.6906 427.992 20.4127 427.491 20.9514C426.99 21.4901 426.305 21.7594 425.437 21.7594C424.569 21.7594 423.885 21.4901 423.383 20.9514C422.882 20.4127 422.631 19.6906 422.631 18.7853C422.631 17.8875 422.886 17.1654 423.395 16.6192C423.903 16.073 424.584 15.8 425.437 15.8C426.29 15.8 426.971 16.073 427.48 16.6192C427.989 17.1654 428.243 17.8875 428.243 18.7853ZM424.236 17.3936C423.959 17.7303 423.821 18.1942 423.821 18.7853C423.821 19.3764 423.963 19.8403 424.248 20.177C424.539 20.5137 424.943 20.682 425.46 20.682C425.968 20.682 426.361 20.5137 426.638 20.177C426.915 19.8403 427.053 19.3764 427.053 18.7853C427.053 18.1942 426.907 17.7303 426.616 17.3936C426.331 17.0495 425.935 16.8774 425.426 16.8774C424.917 16.8774 424.521 17.0495 424.236 17.3936ZM431.966 21.7594C431.12 21.7594 430.447 21.4938 429.946 20.9626C429.452 20.4239 429.205 19.7093 429.205 18.819C429.205 17.9211 429.463 17.1954 429.979 16.6417C430.495 16.0805 431.173 15.8 432.011 15.8C432.729 15.8 433.316 16.002 433.773 16.406C434.229 16.81 434.465 17.3338 434.48 17.9772H433.324C433.294 17.6331 433.163 17.3637 432.931 17.1692C432.706 16.9672 432.396 16.8662 431.999 16.8662C431.498 16.8662 431.105 17.0382 430.821 17.3824C430.537 17.7191 430.394 18.183 430.394 18.7741C430.394 19.3652 430.533 19.8328 430.81 20.177C431.094 20.5137 431.487 20.682 431.988 20.682C432.37 20.682 432.68 20.581 432.92 20.379C433.167 20.1695 433.309 19.8889 433.346 19.5373H434.513C434.446 20.2256 434.184 20.7681 433.728 21.1646C433.271 21.5612 432.684 21.7594 431.966 21.7594ZM440.353 17.6518V21.636H439.22V20.7718C438.801 21.4302 438.176 21.7594 437.345 21.7594C436.769 21.7594 436.313 21.6061 435.976 21.2993C435.647 20.985 435.482 20.566 435.482 20.0423C435.482 19.4662 435.654 19.0621 435.999 18.8302C436.358 18.5833 436.78 18.4224 437.267 18.3476L438.49 18.1568C438.715 18.1269 438.89 18.0633 439.018 17.966C439.145 17.8613 439.208 17.6967 439.208 17.4722C439.208 16.9933 438.857 16.7539 438.153 16.7539C437.353 16.7539 436.889 17.0756 436.762 17.7191H435.639C435.707 17.128 435.969 16.6604 436.425 16.3162C436.881 15.972 437.476 15.8 438.21 15.8C438.898 15.8 439.425 15.9571 439.792 16.2713C440.166 16.5781 440.353 17.0382 440.353 17.6518ZM439.175 19.2118V18.7965C438.965 18.8639 438.7 18.9237 438.378 18.9761L437.727 19.0771C437.443 19.122 437.192 19.2043 436.975 19.324C436.758 19.4512 436.65 19.6719 436.65 19.9862C436.65 20.2331 436.732 20.4239 436.896 20.5586C437.069 20.6932 437.308 20.7606 437.615 20.7606C438.071 20.7606 438.445 20.6184 438.737 20.3341C439.029 20.0498 439.175 19.6757 439.175 19.2118ZM443.233 13.6563V21.636H442.043V13.6563H443.233ZM444.91 14.9133V13.5441H446.178V14.9133H444.91ZM444.944 21.636V15.9122H446.133V21.636H444.944ZM452.28 20.6371V21.636H447.51V20.5586L450.843 16.8998H447.555V15.9122H452.291V16.9896L448.935 20.6371H452.28ZM458.261 18.617V19.1108H454.086C454.086 19.627 454.236 20.0348 454.535 20.3341C454.834 20.6259 455.242 20.7718 455.758 20.7718C456.469 20.7718 456.937 20.4987 457.161 19.9525H458.205C458.063 20.4987 457.764 20.9364 457.307 21.2656C456.858 21.5948 456.312 21.7594 455.669 21.7594C454.853 21.7594 454.198 21.4938 453.705 20.9626C453.218 20.4239 452.975 19.7093 452.975 18.819C452.975 17.9136 453.226 17.1841 453.727 16.6305C454.236 16.0768 454.898 15.8 455.714 15.8C456.484 15.8 457.101 16.0581 457.565 16.5743C458.029 17.0831 458.261 17.764 458.261 18.617ZM456.746 17.1804C456.492 16.9185 456.14 16.7876 455.691 16.7876C455.242 16.7876 454.872 16.9185 454.58 17.1804C454.296 17.4423 454.135 17.7977 454.097 18.2466H457.128C457.128 17.7977 457 17.4423 456.746 17.1804ZM463.641 13.6563H464.831V21.636H463.675V20.682C463.249 21.4003 462.594 21.7594 461.711 21.7594C460.97 21.7594 460.372 21.4863 459.915 20.9402C459.459 20.3865 459.231 19.6607 459.231 18.7629C459.231 17.8875 459.474 17.1767 459.96 16.6305C460.446 16.0768 461.064 15.8 461.812 15.8C462.665 15.8 463.275 16.1142 463.641 16.7427V13.6563ZM463.686 18.7629C463.686 18.1867 463.537 17.7191 463.237 17.36C462.938 17.0008 462.541 16.8213 462.048 16.8213C461.554 16.8213 461.157 17.0008 460.858 17.36C460.566 17.7116 460.42 18.1755 460.42 18.7516C460.42 19.3352 460.566 19.8066 460.858 20.1658C461.157 20.5249 461.554 20.7045 462.048 20.7045C462.541 20.7045 462.938 20.5286 463.237 20.177C463.537 19.8178 463.686 19.3465 463.686 18.7629Z" fill="white"/>
<rect x="80" y="63" width="48.5061" height="10.4878" rx="5.2439" fill="#E8E7F1"/>
<rect x="98" y="254" width="30" height="8" rx="4" fill="#E8E7F1"/>
<rect x="135" y="254" width="52" height="8" rx="4" fill="#E8E7F1"/>
<rect x="98" y="268" width="45" height="8" rx="4" fill="#E8E7F1"/>
<rect x="80.5" y="239.5" width="135" height="51" stroke="#E8E7F1"/>
<rect x="72" y="53" width="59" height="32" fill="#F3F2F8"/>
<path d="M106.04 72.144C105.48 72.1547 104.989 72.0187 104.568 71.736C104.152 71.4533 103.845 71.0933 103.648 70.656C103.451 70.2133 103.355 69.736 103.36 69.224C103.355 68.7013 103.456 68.2187 103.664 67.776C103.872 67.328 104.189 66.9627 104.616 66.68C105.048 66.3973 105.549 66.2587 106.12 66.264C106.813 66.264 107.389 66.4587 107.848 66.848C108.307 67.2373 108.56 67.76 108.608 68.416H107.272C107.272 68.144 107.165 67.9227 106.952 67.752C106.739 67.576 106.459 67.488 106.112 67.488C105.627 67.488 105.267 67.6533 105.032 67.984C104.797 68.3147 104.68 68.72 104.68 69.2C104.68 69.6853 104.795 70.0907 105.024 70.416C105.253 70.7413 105.611 70.904 106.096 70.904C106.453 70.904 106.741 70.808 106.96 70.616C107.179 70.424 107.291 70.1493 107.296 69.792H108.624C108.635 70.512 108.387 71.088 107.88 71.52C107.373 71.9467 106.76 72.1547 106.04 72.144ZM115.705 69.2C115.705 70.0533 115.449 70.7573 114.937 71.312C114.431 71.8667 113.753 72.144 112.905 72.144C112.057 72.144 111.377 71.8667 110.865 71.312C110.359 70.7573 110.105 70.0533 110.105 69.2C110.105 68.3413 110.359 67.6373 110.865 67.088C111.377 66.5387 112.057 66.264 112.905 66.264C113.753 66.264 114.431 66.5387 114.937 67.088C115.449 67.6373 115.705 68.3413 115.705 69.2ZM114.377 69.2C114.377 68.704 114.247 68.3067 113.985 68.008C113.724 67.7093 113.364 67.56 112.905 67.56C112.447 67.56 112.087 67.7093 111.825 68.008C111.564 68.3067 111.433 68.704 111.433 69.2C111.433 69.7013 111.564 70.1013 111.825 70.4C112.087 70.6987 112.447 70.848 112.905 70.848C113.364 70.848 113.724 70.6987 113.985 70.4C114.247 70.1013 114.377 69.7013 114.377 69.2ZM116.785 72V70.624H118.129V72H116.785Z" fill="#B6B6B6"/>
<line x1="85.5" y1="62" x2="85.5" y2="67" stroke="#B6B6B6"/>
<line x1="88" y1="64.5" x2="83" y2="64.5" stroke="#B6B6B6"/>
<line x1="85.5" y1="70" x2="85.5" y2="75" stroke="#B6B6B6"/>
<line x1="88" y1="72.5" x2="83" y2="72.5" stroke="#B6B6B6"/>
<line x1="94.5" y1="62" x2="94.5" y2="67" stroke="#B6B6B6"/>
<line x1="97" y1="64.5" x2="92" y2="64.5" stroke="#B6B6B6"/>
<line x1="94.5" y1="70" x2="94.5" y2="75" stroke="#B6B6B6"/>
<line x1="97" y1="72.5" x2="92" y2="72.5" stroke="#B6B6B6"/>
<line x1="48" y1="35.5" x2="478" y2="35.5" stroke="#F5C725" stroke-width="3"/>
<rect x="253" y="46" width="216" height="268" fill="#F6F5FA"/>
<line x1="405" y1="248.261" x2="465.745" y2="248.261" stroke="#E8E7F1" stroke-width="1.47794"/>
<line x1="405" y1="254.361" x2="465.745" y2="254.361" stroke="#E8E7F1" stroke-width="1.47794"/>
<line x1="405" y1="260.46" x2="465.745" y2="260.46" stroke="#E8E7F1" stroke-width="1.47794"/>
<line x1="405" y1="266.56" x2="465.745" y2="266.56" stroke="#E8E7F1" stroke-width="1.47794"/>
<line x1="405" y1="272.659" x2="465.745" y2="272.659" stroke="#E8E7F1" stroke-width="1.47794"/>
<line x1="405" y1="278.759" x2="465.745" y2="278.759" stroke="#E8E7F1" stroke-width="1.47794"/>
<line x1="405" y1="290.957" x2="465.745" y2="290.957" stroke="#E8E7F1" stroke-width="1.47794"/>
<line x1="405" y1="297.056" x2="465.745" y2="297.056" stroke="#E8E7F1" stroke-width="1.47794"/>
<line x1="405" y1="303.156" x2="465.745" y2="303.156" stroke="#E8E7F1" stroke-width="1.47794"/>
<line x1="405" y1="309.255" x2="465.745" y2="309.255" stroke="#E8E7F1" stroke-width="1.47794"/>
<line x1="405" y1="284.857" x2="465.745" y2="284.857" stroke="#E8E7F1" stroke-width="1.47794"/>
<line x1="358" y1="71.261" x2="390" y2="71.261" stroke="#E8E7F1" stroke-width="1.47794"/>
<line x1="358" y1="77.3606" x2="390" y2="77.3606" stroke="#E8E7F1" stroke-width="1.47794"/>
<line x1="358" y1="83.46" x2="390" y2="83.46" stroke="#E8E7F1" stroke-width="1.47794"/>
<line x1="358" y1="89.5596" x2="390" y2="89.5596" stroke="#E8E7F1" stroke-width="1.47794"/>
<line x1="358" y1="95.659" x2="390" y2="95.659" stroke="#E8E7F1" stroke-width="1.47794"/>
<line x1="358" y1="101.759" x2="390" y2="101.759" stroke="#E8E7F1" stroke-width="1.47794"/>
<line x1="358" y1="113.957" x2="390" y2="113.957" stroke="#E8E7F1" stroke-width="1.47794"/>
<line x1="358" y1="120.056" x2="390" y2="120.056" stroke="#E8E7F1" stroke-width="1.47794"/>
<line x1="358" y1="126.156" x2="390" y2="126.156" stroke="#E8E7F1" stroke-width="1.47794"/>
<line x1="358" y1="132.255" x2="390" y2="132.255" stroke="#E8E7F1" stroke-width="1.47794"/>
<line x1="358" y1="107.857" x2="390" y2="107.857" stroke="#E8E7F1" stroke-width="1.47794"/>
<line x1="261" y1="145.659" x2="274" y2="145.659" stroke="#E8E7F1" stroke-width="1.47794"/>
<line x1="261" y1="151.759" x2="274" y2="151.759" stroke="#E8E7F1" stroke-width="1.47794"/>
<line x1="261" y1="163.957" x2="274" y2="163.957" stroke="#E8E7F1" stroke-width="1.47794"/>
<line x1="261" y1="170.056" x2="274" y2="170.056" stroke="#E8E7F1" stroke-width="1.47794"/>
<line x1="261" y1="176.156" x2="274" y2="176.156" stroke="#E8E7F1" stroke-width="1.47794"/>
<line x1="261" y1="182.255" x2="274" y2="182.255" stroke="#E8E7F1" stroke-width="1.47794"/>
<line x1="261" y1="157.857" x2="274" y2="157.857" stroke="#E8E7F1" stroke-width="1.47794"/>
<line x1="253" y1="190.261" x2="469" y2="190.261" stroke="#E8E7F1" stroke-width="1.47794"/>
<line x1="253" y1="190.261" x2="469" y2="190.261" stroke="#E8E7F1" stroke-width="1.47794"/>
<line x1="253" y1="138.261" x2="469" y2="138.261" stroke="#E8E7F1" stroke-width="1.47794"/>
<line x1="253" y1="65.261" x2="469" y2="65.261" stroke="#E8E7F1" stroke-width="1.47794"/>
<line x1="253" y1="240.261" x2="469" y2="240.261" stroke="#E8E7F1" stroke-width="1.47794"/>
<line x1="349.739" y1="46" x2="349.739" y2="314" stroke="#E8E7F1" stroke-width="1.47794"/>
<line x1="397.739" y1="46" x2="397.739" y2="138" stroke="#E8E7F1" stroke-width="1.47794"/>
<line x1="445.739" y1="46" x2="445.739" y2="241" stroke="#E8E7F1" stroke-width="1.47794"/>
<circle opacity="0.16" cx="335" cy="176" r="38" fill="#F5C725"/>
<circle opacity="0.3" cx="335" cy="176" r="32" fill="#F5C725"/>
<circle cx="335" cy="176" r="4" fill="#000310"/>
<rect x="261" y="249" width="80" height="13" fill="#E8E7F1"/>
<rect x="357" y="220" width="40" height="13" fill="#E8E7F1"/>
<rect x="316" y="74" width="25" height="13" fill="#E8E7F1"/>
<rect x="283" y="74" width="25" height="13" fill="#E8E7F1"/>
<rect x="341" y="269" width="37" height="13" transform="rotate(90 341 269)" fill="#E8E7F1"/>
<rect x="437" y="146" width="37" height="13" transform="rotate(90 437 146)" fill="#E8E7F1"/>
<defs>
<filter id="filter0_d_453_2351" x="0" y="9" width="526" height="382" filterUnits="userSpaceOnUse" color-interpolation-filters="sRGB">
<feFlood flood-opacity="0" result="BackgroundImageFix"/>
<feColorMatrix in="SourceAlpha" type="matrix" values="0 0 0 0 0 0 0 0 0 0 0 0 0 0 0 0 0 0 127 0" result="hardAlpha"/>
<feOffset dy="20"/>
<feGaussianBlur stdDeviation="24"/>
<feComposite in2="hardAlpha" operator="out"/>
<feColorMatrix type="matrix" values="0 0 0 0 0 0 0 0 0 0 0 0 0 0 0 0 0 0 0.1 0"/>
<feBlend mode="normal" in2="BackgroundImageFix" result="effect1_dropShadow_453_2351"/>
<feBlend mode="normal" in="SourceGraphic" in2="effect1_dropShadow_453_2351" result="shape"/>
</filter>
</defs>
</svg>
