<svg width="434" height="480" viewBox="0 0 434 480" fill="none" xmlns="http://www.w3.org/2000/svg">
<rect x="7" y="114" width="420" height="360" fill="white"/>
<rect y="4" width="434" height="128" fill="#04003F"/>
<rect x="6" y="6" width="422" height="468" stroke="#04003F" stroke-width="12"/>
<path fill-rule="evenodd" clip-rule="evenodd" d="M266.566 58.2811C265.928 54.3573 263.611 52.3655 259.202 52.3655H246.501C242.096 52.3655 239.778 54.3573 239.138 58.2811C239.08 58.7385 239.022 59.2482 239.022 59.7031V83.086H246.967V62.3917C246.967 60.7946 247.539 60.1584 249.087 60.1584H256.629C258.018 60.1584 258.739 60.7946 258.739 62.3917V83.086H266.684V59.7031C266.684 59.2482 266.623 58.7385 266.566 58.2811ZM227.601 83.0857H235.544V52.3651H227.601V83.0857ZM213.034 41.2589H205.09V83.109H213.034V60.1827H220.645V52.3884H213.034V41.2589ZM193.728 83.086H201.671V41.2371H193.728V83.086ZM139.827 62.377C139.827 60.7307 138.939 60.1601 137.74 60.1601H130.203C128.69 60.1601 127.94 60.8288 127.94 62.3209V75.2797H137.709C139.098 75.2797 139.827 74.4229 139.827 73.0597V62.377ZM147.654 58.7364C147.714 59.136 147.772 59.5902 147.772 59.9874V75.3488C147.772 77.0007 147.423 78.307 146.728 79.4454C145.218 82.0626 143.422 83.086 140.524 83.086L120.016 83.0949L120 41.2367H127.94V52.3655H140.64C141.161 52.3655 141.683 52.4222 142.147 52.5358C145.161 53.1621 147.248 55.4375 147.654 58.7364ZM170.966 73.0597C170.966 74.6568 170.395 75.2928 168.847 75.2928H161.305C159.916 75.2928 159.195 74.6568 159.195 73.0597V52.3655H151.25V75.7484C151.25 76.2033 151.31 76.713 151.368 77.1707C152.005 81.0942 154.323 83.086 158.731 83.086H171.433C175.838 83.086 178.156 81.0942 178.796 77.1707C178.853 76.713 178.911 76.2033 178.911 75.7484V52.3655H170.966V73.0597ZM182.39 83.1387H190.332V52.4171H182.39V83.1387Z" fill="white"/>
<mask id="mask0_1_82" style="mask-type:luminance" maskUnits="userSpaceOnUse" x="229" y="26" width="85" height="84">
<path fill-rule="evenodd" clip-rule="evenodd" d="M229.533 26.2528V41.1446H234.865V31.5439H308.262V104.513H234.865V94.7691H229.533V109.804H313.594V26.2528H229.533Z" fill="white"/>
</mask>
<g mask="url(#mask0_1_82)">
<path fill-rule="evenodd" clip-rule="evenodd" d="M229.533 26.2528V41.1446H234.865V31.5439H308.262V104.513H234.865V94.7691H229.533V109.804H313.594V26.2528H229.533Z" fill="white"/>
</g>
<path d="M60 327.135H73.0099V303.585H73.1165C86.3397 302.622 95.7239 294.594 95.7239 277.681V277.467C95.7239 259.912 85.8065 252.205 71.6236 252.205H60V327.135ZM73.0099 291.49V264.301H73.4365C79.0883 264.301 82.714 268.369 82.714 277.895V278.109C82.714 287.208 78.5551 291.169 73.1165 291.49H73.0099Z" fill="#04003F"/>
<path d="M120.826 327.135H147.592V314.718H133.836V252.205H120.826V327.135Z" fill="#04003F"/>
<path d="M168.339 327.135H180.923L183.269 312.256H195.105L197.558 327.135H210.568L196.385 251.991H182.522L168.339 327.135ZM185.188 300.481L189.24 275.754L193.186 300.481H185.188Z" fill="#04003F"/>
<path d="M253.042 327.67C256.775 327.67 259.654 327.135 262.64 325.422V312.577C259.974 314.183 257.415 314.932 255.389 314.932C249.417 314.932 245.258 310.864 245.258 291.062V288.278C245.258 269.546 249.417 264.408 255.175 264.408C257.628 264.408 259.761 265.264 262.427 266.87V253.383C259.654 252.098 257.521 251.67 253.896 251.67C241.739 251.67 232.035 262.053 232.035 288.385V290.954C232.035 317.073 241.099 327.67 253.042 327.67Z" fill="#04003F"/>
<path d="M288.934 327.135H317.833V314.718H301.943V295.664H315.7V283.247H301.943V264.622H317.513V252.205H288.934V327.135Z" fill="#04003F"/>
<path d="M355.552 327.67C365.789 327.67 374 319.856 374 308.081C374 300.053 371.761 295.022 361.523 283.14C355.338 275.969 354.272 273.828 354.272 270.724C354.272 266.335 357.364 263.98 360.99 263.98C364.403 263.98 366.855 265.05 370.908 267.405V254.025C368.028 252.74 364.616 251.67 359.71 251.67C349.047 251.67 341.262 259.27 341.262 271.152C341.262 279.822 344.674 285.067 353.845 295.129C360.244 302.087 360.99 305.512 360.99 307.974C360.99 312.898 358.004 315.36 353.845 315.36C349.9 315.36 346.914 313.862 342.328 311.185V324.566C346.061 326.385 350.433 327.67 355.552 327.67Z" fill="#04003F"/>
<path d="M137.32 425.013H150.865L157.002 381.098L163.14 425.013H176.685L187.901 350.728H174.992L169.489 396.124L163.14 350.728H151.182L144.728 396.124L139.331 350.728H126.104L137.32 425.013Z" fill="#04003F"/>
<path d="M229.24 425.859C240.986 425.859 248.923 414.113 248.923 389.669V385.86C248.923 361.416 240.986 349.67 229.24 349.67C217.495 349.67 209.558 361.416 209.558 385.86V389.669C209.558 414.113 217.495 425.859 229.24 425.859ZM229.24 414.007C225.325 414.007 222.68 408.717 222.68 389.669V385.86C222.68 366.813 225.325 361.522 229.24 361.522C233.156 361.522 235.801 366.813 235.801 385.86V389.669C235.801 408.717 233.156 414.007 229.24 414.007Z" fill="#04003F"/>
<path d="M274.906 424.801H287.816V398.981H290.25L298.61 424.801H312.366L302.419 394.749C307.287 391.045 311.096 384.907 311.096 375.278V374.326C311.096 366.283 308.874 360.569 304.959 356.654C300.938 352.633 295.118 350.728 288.24 350.728H274.906V424.801ZM287.816 387.341V362.791H288.134C293.742 362.791 298.187 365.225 298.187 374.537V375.384C298.187 384.061 294.06 387.341 288.451 387.341H287.816Z" fill="#04003F"/>
<path d="M336.712 424.801H349.621V404.695L352.584 396.442L360.732 424.801H374.7L362.108 382.05L374.489 350.728H360.309L349.621 382.474V350.728H336.712V424.801Z" fill="#04003F"/>
<path d="M64.14 404.101H70.89V379.036H75.03V372.601H60V379.036H64.14V404.101Z" fill="#04003F"/>
<path d="M92.2213 404.686C97.8913 404.686 101.491 399.556 101.491 389.341V387.361C101.491 377.101 97.8913 372.016 92.2213 372.016C86.5063 372.016 82.9063 377.101 82.9063 387.361V389.341C82.9063 399.556 86.5063 404.686 92.2213 404.686ZM92.2213 398.431C90.7363 398.431 89.7913 396.811 89.7913 389.386V387.271C89.7913 379.891 90.7363 378.226 92.2213 378.226C93.7063 378.226 94.6063 379.891 94.6063 387.271V389.386C94.6063 396.811 93.7063 398.431 92.2213 398.431Z" fill="#04003F"/>
<path d="M101.005 420.016H60V425.009H101.005V420.016Z" fill="#04003F"/>
<path d="M101.005 351.016H60V356.009H101.005V351.016Z" fill="#04003F"/>
<path d="M60.617 228.67V220.739L70.396 200.103C73.476 193.558 74.323 190.786 74.323 188.245C74.323 185.55 72.706 183.086 69.164 183.086C66.315 183.086 63.851 184.318 61.695 185.704V176.618C64.236 175.309 67.239 174 71.32 174C78.635 174 83.486 178.62 83.486 186.628V187.013C83.486 191.248 82.485 195.329 79.328 201.72L70.627 219.43H83.255V228.67H60.617Z" fill="#6147D7"/>
<path d="M113.386 229.44C104.685 229.44 100.065 221.817 100.065 203.183V200.257C100.065 181.623 104.685 174 113.386 174C121.933 174 126.707 181.623 126.707 200.257V203.183C126.707 221.817 121.933 229.44 113.386 229.44ZM113.386 220.816C115.542 220.816 117.39 218.352 117.39 203.106V200.334C117.39 185.088 115.542 182.624 113.386 182.624C111.153 182.624 109.305 185.088 109.305 200.334V203.106C109.305 218.352 111.153 220.816 113.386 220.816Z" fill="#6147D7"/>
<path d="M143.037 228.67V220.739L152.816 200.103C155.896 193.558 156.743 190.786 156.743 188.245C156.743 185.55 155.126 183.086 151.584 183.086C148.735 183.086 146.271 184.318 144.115 185.704V176.618C146.656 175.309 149.659 174 153.74 174C161.055 174 165.906 178.62 165.906 186.628V187.013C165.906 191.248 164.905 195.329 161.748 201.72L153.047 219.43H165.675V228.67H143.037Z" fill="#6147D7"/>
<path d="M195.593 228.67V218.737H180.963V211.576L195.131 174.616H204.371V210.652H208.76V218.737H204.371V228.67H195.593ZM188.586 210.652H195.593V190.94L188.586 210.652Z" fill="#6147D7"/>
<path d="M232.39 228.67H240.783C251.255 228.67 258.647 223.28 258.647 213.732V213.039C258.647 206.186 254.72 203.029 250.177 201.027C254.027 199.179 257.954 195.791 257.954 188.861V188.476C257.954 184.549 256.722 181.623 254.412 179.313C251.255 176.156 245.942 174.77 240.398 174.77H232.39V228.67ZM248.714 190.324C248.714 195.021 245.942 197.408 241.784 197.408H241.63V183.471H241.784C245.942 183.471 248.714 185.473 248.714 190.17V190.324ZM249.253 212.577V212.962C249.253 217.428 246.173 219.969 241.861 219.969H241.63V205.57H241.861C246.173 205.57 249.253 208.111 249.253 212.577Z" fill="#04003F"/>
<path d="M276.188 228.67H297.055V219.738H285.582V206.032H295.515V197.1H285.582V183.702H296.824V174.77H276.188V228.67Z" fill="#04003F"/>
<path d="M323.643 229.055C331.035 229.055 336.964 223.434 336.964 214.964C336.964 209.189 335.347 205.57 327.955 197.023C323.489 191.864 322.719 190.324 322.719 188.091C322.719 184.934 324.952 183.24 327.57 183.24C330.034 183.24 331.805 184.01 334.731 185.704V176.079C332.652 175.155 330.188 174.385 326.646 174.385C318.946 174.385 313.325 179.852 313.325 188.399C313.325 194.636 315.789 198.409 322.411 205.647C327.031 210.652 327.57 213.116 327.57 214.887C327.57 218.429 325.414 220.2 322.411 220.2C319.562 220.2 317.406 219.122 314.095 217.197V226.822C316.79 228.131 319.947 229.055 323.643 229.055Z" fill="#04003F"/>
<path d="M357.812 228.67H367.206V183.702H373.828V174.77H351.19V183.702H357.812V228.67Z" fill="#04003F"/>
</svg>
